<?xml version="1.0" encoding="utf-8"?>
<!-- Generator: Adobe Illustrator 21.0.0, SVG Export Plug-In . SVG Version: 6.00 Build 0)  -->
<svg version="1.1" xmlns="http://www.w3.org/2000/svg" xmlns:xlink="http://www.w3.org/1999/xlink" x="0px" y="0px"
	 viewBox="0 0 500 500" style="enable-background:new 0 0 500 500;" xml:space="preserve">
<style type="text/css">
	.st0{opacity:0.25;fill:#FFFFFF;}
	.st1{fill:url(#SVGID_1_);}
	.st2{fill:#EDEFF4;}
	.st3{opacity:0.75;fill:#EDEFF4;}
	.st4{fill:url(#SVGID_2_);}
	.st5{fill:#405EBF;}
	.st6{fill:url(#SVGID_3_);}
	.st7{fill:url(#SVGID_4_);}
	.st8{fill:url(#SVGID_5_);}
	.st9{fill:url(#SVGID_6_);}
	.st10{fill:url(#SVGID_7_);}
	.st11{fill:url(#SVGID_8_);}
	.st12{fill:url(#SVGID_9_);}
	.st13{fill:url(#SVGID_10_);}
	.st14{fill:url(#SVGID_11_);}
	.st15{fill:url(#SVGID_12_);}
	.st16{fill:url(#SVGID_13_);}
	.st17{fill:url(#SVGID_14_);}
	.st18{fill:url(#SVGID_15_);}
	.st19{fill:url(#SVGID_16_);}
	.st20{fill:url(#SVGID_17_);}
	.st21{fill:#192EAD;}
	.st22{fill:url(#SVGID_18_);}
	.st23{fill:url(#SVGID_19_);}
	.st24{fill:url(#SVGID_20_);}
	.st25{fill:url(#SVGID_21_);}
	.st26{fill:url(#SVGID_22_);}
	.st27{fill:url(#SVGID_23_);}
	.st28{fill:url(#SVGID_24_);}
	.st29{fill:url(#SVGID_25_);}
	.st30{fill:url(#SVGID_26_);}
	.st31{fill:url(#SVGID_27_);}
	.st32{fill:url(#SVGID_28_);}
	.st33{fill:url(#SVGID_29_);}
	.st34{fill:url(#SVGID_30_);}
	.st35{fill:url(#SVGID_31_);}
	.st36{fill:url(#SVGID_32_);}
	.st37{fill:url(#SVGID_33_);}
	.st38{fill:url(#SVGID_34_);}
	.st39{fill:url(#SVGID_35_);}
	.st40{fill:url(#SVGID_36_);}
	.st41{fill:url(#SVGID_37_);}
	.st42{fill:url(#SVGID_38_);}
	.st43{fill:url(#SVGID_39_);}
	.st44{fill:url(#SVGID_40_);}
	.st45{fill:url(#SVGID_41_);}
	.st46{fill:url(#SVGID_42_);}
	.st47{fill:url(#SVGID_43_);}
	.st48{fill:url(#SVGID_44_);}
	.st49{fill:url(#SVGID_45_);}
	.st50{fill:url(#SVGID_46_);}
	.st51{fill:url(#SVGID_47_);}
	.st52{fill:url(#SVGID_48_);}
	.st53{fill:url(#SVGID_49_);}
	.st54{fill:url(#SVGID_50_);}
	.st55{fill:url(#SVGID_51_);}
	.st56{fill:url(#SVGID_52_);}
	.st57{fill:url(#SVGID_53_);}
	.st58{fill:url(#SVGID_54_);}
	.st59{fill:url(#SVGID_55_);}
	.st60{fill:#DBDCDD;}
	.st61{fill:#1631A4;}
	.st62{fill:#FFBC47;}
	.st63{fill:url(#SVGID_56_);}
	.st64{fill:#E3E4E5;}
	.st65{fill:none;stroke:#1631A4;stroke-width:2.6419;stroke-linecap:round;stroke-miterlimit:10;}
	.st66{fill:#FFFFFF;}
	.st67{fill:#000289;}
	.st68{fill:none;stroke:#FFBC47;stroke-width:0.7737;stroke-miterlimit:10;}
	.st69{fill:#E8E8E8;}
	.st70{fill:#D6D6D8;}
	.st71{fill:#FFFDFD;}
	.st72{fill:#242463;}
	.st73{fill:url(#SVGID_57_);}
	.st74{fill:url(#SVGID_58_);}
	.st75{fill:url(#SVGID_59_);}
	.st76{fill:url(#SVGID_60_);}
	.st77{fill:#4864D8;}
	.st78{fill:url(#SVGID_61_);}
	.st79{fill:#1D1D6D;}
	.st80{fill:url(#SVGID_62_);}
	.st81{fill:#1F1F84;}
	.st82{fill:url(#SVGID_63_);}
	.st83{fill:url(#SVGID_64_);}
	.st84{fill:url(#SVGID_65_);}
	.st85{fill:url(#SVGID_66_);}
	.st86{fill:url(#SVGID_67_);}
	.st87{fill:#EFF4F4;}
	.st88{fill:none;stroke:#FF2A6E;stroke-width:0.3774;stroke-miterlimit:10;}
	.st89{fill:#DBE1E3;}
	.st90{fill:url(#SVGID_68_);}
	.st91{fill:url(#SVGID_69_);}
	.st92{fill:url(#SVGID_70_);}
	.st93{fill:url(#SVGID_71_);}
	.st94{fill:url(#SVGID_72_);}
	.st95{fill:#566EEC;}
	.st96{fill:url(#SVGID_73_);}
	.st97{fill:#1B4266;}
	.st98{fill:#17177F;}
	.st99{fill:url(#SVGID_74_);}
	.st100{fill:url(#SVGID_75_);}
	.st101{fill:url(#SVGID_76_);}
	.st102{fill:url(#SVGID_77_);}
	.st103{fill:url(#SVGID_78_);}
	.st104{fill:url(#SVGID_79_);}
	.st105{fill:url(#SVGID_80_);}
	.st106{fill:url(#SVGID_81_);}
	.st107{fill:url(#SVGID_82_);}
	.st108{fill:#3C59B5;}
	.st109{fill:none;stroke:#6081F7;stroke-width:0.3774;stroke-miterlimit:10;}
	.st110{fill:#6081F7;}
	.st111{fill:url(#SVGID_83_);}
	.st112{fill:url(#SVGID_84_);}
	.st113{fill:url(#SVGID_85_);}
	.st114{fill:url(#SVGID_86_);}
	.st115{fill:url(#SVGID_87_);}
	.st116{fill:url(#SVGID_88_);}
	.st117{fill:url(#SVGID_89_);}
	.st118{fill:url(#SVGID_90_);}
	.st119{fill:url(#SVGID_91_);}
	.st120{fill:url(#SVGID_92_);}
	.st121{fill:url(#SVGID_93_);}
	.st122{fill:url(#SVGID_94_);}
	.st123{fill:none;stroke:#F9962B;stroke-width:0.5661;stroke-linecap:round;stroke-miterlimit:10;}
	.st124{fill:url(#SVGID_95_);}
	.st125{fill:url(#SVGID_96_);}
	.st126{fill:url(#SVGID_97_);}
	.st127{fill:url(#SVGID_98_);}
	.st128{fill:url(#SVGID_99_);}
	.st129{fill:url(#SVGID_100_);}
	.st130{fill:url(#SVGID_101_);}
	.st131{fill:url(#SVGID_102_);}
</style>
<g id="BACKGROUND">
	<rect class="st0" width="500" height="500"/>
</g>
<g id="OBJECTS">
	<g>
		<linearGradient id="SVGID_1_" gradientUnits="userSpaceOnUse" x1="40.8868" y1="35.3361" x2="40.9176" y2="35.6996">
			<stop  offset="0" style="stop-color:#7763F7"/>
			<stop  offset="0.248" style="stop-color:#6F72F7"/>
			<stop  offset="0.3371" style="stop-color:#6C79F7"/>
			<stop  offset="0.7628" style="stop-color:#5B9EF8"/>
			<stop  offset="1" style="stop-color:#50B5F8"/>
		</linearGradient>
		<path class="st1" d="M42.1,35.5C42.1,35.5,42.1,35.5,42.1,35.5c-0.8,0-1.6,0-2.4-0.1C40.3,35.4,41,35.5,42.1,35.5z"/>
		<path class="st2" d="M207.7,320.9c0,0-51,1.5-54.1,6.4c-3.1,4.8,30.1,5.4,32.9,15.6c2.8,10.2,10.5,16.8,69.4,16.6
			c58.9-0.3,54.3-4.8,44.1-15.6s6.6-10.2,2-17.1S228.6,319.9,207.7,320.9z"/>
		<path class="st2" d="M379.6,388.5c-6.6,3.3-10.2,8.4,0.8,9.4c11,1,25.2,14.8,52.5,9.9c27.3-4.8,7.6-23.8-33-26.1L379.6,388.5z"/>
		<path class="st2" d="M223.8,462.4c0,0-17.1,3.8-16.1,11.5c1,7.6,28,2,34.9,8.7c6.9,6.6,47.2,5.6,41.6-6.6
			C278.6,463.7,252.6,459.6,223.8,462.4z"/>
		<path class="st3" d="M133.4,411.1c5.8,1.3,9.5,7.2,8,12.9c-1.1,4.3-4.2,8.5-11.4,10.1c-16.6,3.6-24.2,26-57.9,17.1
			c-33.7-8.9,14.6-38.6,14.6-38.6S95.8,402.8,133.4,411.1z"/>
		<path class="st3" d="M249.8,14.7c-26-15.3-53.8,4.3-68.3,34.4c-14.5,30.1-20.4,56-79.4,44.4C43,82,17,113.1,20.6,164
			c3.6,50.9,64.8,157.7,226.9,149.8s210.9-111.7,203.7-159.1c-7.1-47.4-96.6-35.7-131.8-75S268.4,25.7,249.8,14.7z"/>
		<linearGradient id="SVGID_2_" gradientUnits="userSpaceOnUse" x1="440.6356" y1="264.2799" x2="488.0591" y2="283.0199">
			<stop  offset="0" style="stop-color:#4F6AD9"/>
			<stop  offset="1" style="stop-color:#658BFD"/>
		</linearGradient>
		<path class="st4" d="M442.3,246.7c0,0,23.5,5.6,31.9,29.8c0,0-21.2,7.4-41.6,2.8C412.2,274.8,442.3,246.7,442.3,246.7z"/>
		<path class="st5" d="M430.8,261.3c0,0,18.1,2.5,30.1,9.2c0,0-15.6-5.1-34.7-6.6L430.8,261.3z"/>
		<g>
			<linearGradient id="SVGID_3_" gradientUnits="userSpaceOnUse" x1="414.5685" y1="257.2244" x2="454.5914" y2="232.932">
				<stop  offset="0" style="stop-color:#4869D8"/>
				<stop  offset="1" style="stop-color:#658BFD"/>
			</linearGradient>
			<path class="st6" d="M410.3,267.2c0,0,30.3,2.5,40.5-16.1s7.9-27.8,7.9-27.8s-41.8-0.8-56.1,30.1L410.3,267.2z"/>
			<path class="st5" d="M411.9,263c0,0,19.3-23.8,43.3-34.5c0,0-27.5,8.7-44.9,32.6L411.9,263z"/>
			<linearGradient id="SVGID_4_" gradientUnits="userSpaceOnUse" x1="454.6198" y1="269.008" x2="433.6171" y2="244.2509">
				<stop  offset="0" style="stop-color:#8DAEFF"/>
				<stop  offset="1" style="stop-color:#8DAEFF;stop-opacity:0"/>
			</linearGradient>
			<path class="st7" d="M410.3,267.2c0,0,30.3,2.5,40.5-16.1s7.9-27.8,7.9-27.8s-41.8-0.8-56.1,30.1L410.3,267.2z"/>
		</g>
		<g>
			<linearGradient id="SVGID_5_" gradientUnits="userSpaceOnUse" x1="395.8066" y1="271.4935" x2="449.7319" y2="289.8511">
				<stop  offset="0" style="stop-color:#546AEA"/>
				<stop  offset="1" style="stop-color:#658BFD"/>
			</linearGradient>
			<path class="st8" d="M413,253.6c32.4,8.9,33.3,39.6,40.4,55.7c0,0-34.4,5.9-50.7-26.7C397.6,269.6,392.7,254.8,413,253.6z"/>
			<path class="st5" d="M410.8,265.7c0,0,20.4,13,28.6,32.4c0,0-18.4-26-31.9-29.6L410.8,265.7z"/>
			<linearGradient id="SVGID_6_" gradientUnits="userSpaceOnUse" x1="425.4867" y1="314.6485" x2="425.7417" y2="291.9553">
				<stop  offset="0" style="stop-color:#8DAEFF"/>
				<stop  offset="1" style="stop-color:#8DAEFF;stop-opacity:0"/>
			</linearGradient>
			<path class="st9" d="M413,253.6c32.4,8.9,33.3,39.6,40.4,55.7c0,0-34.4,5.9-50.7-26.7C397.6,269.6,392.7,254.8,413,253.6z"/>
		</g>
		<g>
			<linearGradient id="SVGID_7_" gradientUnits="userSpaceOnUse" x1="403.0042" y1="228.5516" x2="442.6902" y2="200.7715">
				<stop  offset="0" style="stop-color:#546AEA"/>
				<stop  offset="1" style="stop-color:#658BFD"/>
			</linearGradient>
			<path class="st10" d="M399.7,212c0,0,13.8-19.1,53.5-15.8c0,0-6.9,2.1-12.9,17.1c-5.9,15-18.8,28.9-41.5,23.5L399.7,212z"/>
			<path class="st5" d="M403.6,227.3c0,0,18.9-18.2,37.5-25.4c0,0-16.5,3.6-39.7,24.1L403.6,227.3z"/>
			<linearGradient id="SVGID_8_" gradientUnits="userSpaceOnUse" x1="439.3167" y1="233.1385" x2="425.5479" y2="215.7999">
				<stop  offset="0" style="stop-color:#8DAEFF"/>
				<stop  offset="1" style="stop-color:#8DAEFF;stop-opacity:0"/>
			</linearGradient>
			<path class="st11" d="M399.7,212c0,0,13.8-19.1,53.5-15.8c0,0-6.9,2.1-12.9,17.1c-5.9,15-18.8,28.9-41.5,23.5L399.7,212z"/>
		</g>
		<g>
			
				<linearGradient id="SVGID_9_" gradientUnits="userSpaceOnUse" x1="414.7929" y1="38.5898" x2="436.1436" y2="38.5898" gradientTransform="matrix(0.9754 -0.2204 0.2204 0.9754 24.8267 137.7261)">
				<stop  offset="0" style="stop-color:#546AEA"/>
				<stop  offset="1" style="stop-color:#658BFD"/>
			</linearGradient>
			<path class="st12" d="M440.3,94.3c0,0,5.3-13.6,16.2-25.4C456.4,68.9,450.6,85.8,440.3,94.3z"/>
			
				<linearGradient id="SVGID_10_" gradientUnits="userSpaceOnUse" x1="406.6006" y1="38.3382" x2="417.3325" y2="38.3382" gradientTransform="matrix(0.9754 -0.2204 0.2204 0.9754 24.8267 137.7261)">
				<stop  offset="0" style="stop-color:#546AEA"/>
				<stop  offset="1" style="stop-color:#658BFD"/>
			</linearGradient>
			<path class="st13" d="M433.5,101.6c0,0,4.6-17.3,3.2-34.5C436.7,67.1,431.1,85.8,433.5,101.6z"/>
			
				<linearGradient id="SVGID_11_" gradientUnits="userSpaceOnUse" x1="407.5127" y1="54.3485" x2="441.569" y2="54.3485" gradientTransform="matrix(0.9754 -0.2204 0.2204 0.9754 24.8267 137.7261)">
				<stop  offset="0" style="stop-color:#546AEA"/>
				<stop  offset="1" style="stop-color:#658BFD"/>
			</linearGradient>
			<path class="st14" d="M467.3,92.5c0,0-15.8,7.8-32.7,9.7C434.6,102.2,451.6,93.1,467.3,92.5z"/>
			
				<linearGradient id="SVGID_12_" gradientUnits="userSpaceOnUse" x1="396.975" y1="64.3916" x2="432.5223" y2="64.3916" gradientTransform="matrix(0.9754 -0.2204 0.2204 0.9754 24.8267 137.7261)">
				<stop  offset="0" style="stop-color:#546AEA"/>
				<stop  offset="1" style="stop-color:#658BFD"/>
			</linearGradient>
			<path class="st15" d="M460.9,105.1c0,0-16.9,7.6-34.5,8.5C426.4,113.6,444.5,104.6,460.9,105.1z"/>
			
				<linearGradient id="SVGID_13_" gradientUnits="userSpaceOnUse" x1="383.9971" y1="74.5626" x2="420.4139" y2="74.5626" gradientTransform="matrix(0.9754 -0.2204 0.2204 0.9754 24.8267 137.7261)">
				<stop  offset="0" style="stop-color:#546AEA"/>
				<stop  offset="1" style="stop-color:#658BFD"/>
			</linearGradient>
			<path class="st16" d="M451.3,117.6c0,0-17.2,8.1-35.3,9C416,126.5,434.5,116.9,451.3,117.6z"/>
			
				<linearGradient id="SVGID_14_" gradientUnits="userSpaceOnUse" x1="371.9784" y1="86.0577" x2="407.9095" y2="86.0577" gradientTransform="matrix(0.9754 -0.2204 0.2204 0.9754 24.8267 137.7261)">
				<stop  offset="0" style="stop-color:#546AEA"/>
				<stop  offset="1" style="stop-color:#658BFD"/>
			</linearGradient>
			<path class="st17" d="M442.3,134.8c0,0-18.5,4.6-36.4,2C406,136.7,426,130.9,442.3,134.8z"/>
			
				<linearGradient id="SVGID_15_" gradientUnits="userSpaceOnUse" x1="395.3945" y1="46.6176" x2="403.153" y2="46.6176" gradientTransform="matrix(0.9754 -0.2204 0.2204 0.9754 24.8267 137.7261)">
				<stop  offset="0" style="stop-color:#546AEA"/>
				<stop  offset="1" style="stop-color:#658BFD"/>
			</linearGradient>
			<path class="st18" d="M424.5,112.5c0,0,3-17.6,0.1-34.7C424.6,77.9,420.7,97,424.5,112.5z"/>
			
				<linearGradient id="SVGID_16_" gradientUnits="userSpaceOnUse" x1="381.644" y1="54.0215" x2="388.3356" y2="54.0215" gradientTransform="matrix(0.9754 -0.2204 0.2204 0.9754 24.8267 137.7261)">
				<stop  offset="0" style="stop-color:#546AEA"/>
				<stop  offset="1" style="stop-color:#658BFD"/>
			</linearGradient>
			<path class="st19" d="M413.4,124.2c0,0,2.7-19.4-1.9-37.3C411.4,86.9,407.6,108,413.4,124.2z"/>
			
				<linearGradient id="SVGID_17_" gradientUnits="userSpaceOnUse" x1="369.0965" y1="61.1521" x2="374.4503" y2="61.1521" gradientTransform="matrix(0.9754 -0.2204 0.2204 0.9754 24.8267 137.7261)">
				<stop  offset="0" style="stop-color:#546AEA"/>
				<stop  offset="1" style="stop-color:#658BFD"/>
			</linearGradient>
			<path class="st20" d="M403.1,134c0,0,1.7-19.5-3.9-37.2C399.2,96.8,396.5,118.1,403.1,134z"/>
			<path class="st21" d="M394.7,141.9c0,0,17.4-10.5,45-46.7c0,0-26.6,39.5-44.1,50.6L394.7,141.9z"/>
		</g>
		<g>
			
				<linearGradient id="SVGID_18_" gradientUnits="userSpaceOnUse" x1="347.732" y1="175.0811" x2="369.0827" y2="175.0811" gradientTransform="matrix(0.9677 0.252 -0.252 0.9677 154.3234 -113.3666)">
				<stop  offset="0" style="stop-color:#546AEA"/>
				<stop  offset="1" style="stop-color:#658BFD"/>
			</linearGradient>
			<path class="st22" d="M444,153.9c0,0,11-9.6,26-15.1C470,138.8,457.1,151.1,444,153.9z"/>
			
				<linearGradient id="SVGID_19_" gradientUnits="userSpaceOnUse" x1="339.5395" y1="174.8296" x2="350.2711" y2="174.8296" gradientTransform="matrix(0.9677 0.252 -0.252 0.9677 154.3234 -113.3666)">
				<stop  offset="0" style="stop-color:#546AEA"/>
				<stop  offset="1" style="stop-color:#658BFD"/>
			</linearGradient>
			<path class="st23" d="M434.7,157.3c0,0,12-13.2,18.7-29.2C453.4,128.2,439.8,142.2,434.7,157.3z"/>
			
				<linearGradient id="SVGID_20_" gradientUnits="userSpaceOnUse" x1="340.4519" y1="190.84" x2="374.5086" y2="190.84" gradientTransform="matrix(0.9677 0.252 -0.252 0.9677 154.3234 -113.3666)">
				<stop  offset="0" style="stop-color:#546AEA"/>
				<stop  offset="1" style="stop-color:#658BFD"/>
			</linearGradient>
			<path class="st24" d="M468.9,164.8c0,0-17.6-0.3-33.5-6.4C435.3,158.4,454.6,158.1,468.9,164.8z"/>
			
				<linearGradient id="SVGID_21_" gradientUnits="userSpaceOnUse" x1="329.9141" y1="200.8834" x2="365.4619" y2="200.8834" gradientTransform="matrix(0.9677 0.252 -0.252 0.9677 154.3234 -113.3666)">
				<stop  offset="0" style="stop-color:#546AEA"/>
				<stop  offset="1" style="stop-color:#658BFD"/>
			</linearGradient>
			<path class="st25" d="M457.4,173c0,0-18.5-1-34.6-8.3C422.8,164.7,443.1,165.1,457.4,173z"/>
			
				<linearGradient id="SVGID_22_" gradientUnits="userSpaceOnUse" x1="316.9362" y1="211.0548" x2="353.3535" y2="211.0548" gradientTransform="matrix(0.9677 0.252 -0.252 0.9677 154.3234 -113.3666)">
				<stop  offset="0" style="stop-color:#546AEA"/>
				<stop  offset="1" style="stop-color:#658BFD"/>
			</linearGradient>
			<path class="st26" d="M443.1,179.7c0,0-19-0.7-35.5-8.3C407.7,171.4,428.5,171.5,443.1,179.7z"/>
			
				<linearGradient id="SVGID_23_" gradientUnits="userSpaceOnUse" x1="304.9174" y1="222.5502" x2="340.8492" y2="222.5502" gradientTransform="matrix(0.9677 0.252 -0.252 0.9677 154.3234 -113.3666)">
				<stop  offset="0" style="stop-color:#546AEA"/>
				<stop  offset="1" style="stop-color:#658BFD"/>
			</linearGradient>
			<path class="st27" d="M427.3,190.9c0,0-18.5-4.4-33.2-15C394.1,175.9,414.5,180,427.3,190.9z"/>
			
				<linearGradient id="SVGID_24_" gradientUnits="userSpaceOnUse" x1="328.3335" y1="183.1094" x2="336.0916" y2="183.1094" gradientTransform="matrix(0.9677 0.252 -0.252 0.9677 154.3234 -113.3666)">
				<stop  offset="0" style="stop-color:#546AEA"/>
				<stop  offset="1" style="stop-color:#658BFD"/>
			</linearGradient>
			<path class="st28" d="M421.7,162.9c0,0,10.7-14.3,16-30.7C437.7,132.2,425.4,147.4,421.7,162.9z"/>
			
				<linearGradient id="SVGID_25_" gradientUnits="userSpaceOnUse" x1="314.5829" y1="190.5137" x2="321.274" y2="190.5137" gradientTransform="matrix(0.9677 0.252 -0.252 0.9677 154.3234 -113.3666)">
				<stop  offset="0" style="stop-color:#546AEA"/>
				<stop  offset="1" style="stop-color:#658BFD"/>
			</linearGradient>
			<path class="st29" d="M406.4,168.2c0,0,11.3-15.9,15.4-34C421.8,134.1,408.7,151.2,406.4,168.2z"/>
			
				<linearGradient id="SVGID_26_" gradientUnits="userSpaceOnUse" x1="302.0352" y1="197.6446" x2="307.3887" y2="197.6446" gradientTransform="matrix(0.9677 0.252 -0.252 0.9677 154.3234 -113.3666)">
				<stop  offset="0" style="stop-color:#546AEA"/>
				<stop  offset="1" style="stop-color:#658BFD"/>
			</linearGradient>
			<path class="st30" d="M392.8,172.1c0,0,10.5-16.5,13.6-34.8C406.4,137.3,394.2,155,392.8,172.1z"/>
			<path class="st21" d="M381.7,175.4c0,0,20.3-1.4,61.4-20.9c0,0-41.8,22.9-62.4,24.7L381.7,175.4z"/>
		</g>
		<g>
			<linearGradient id="SVGID_27_" gradientUnits="userSpaceOnUse" x1="405.87" y1="203.9316" x2="411.9891" y2="160.7149">
				<stop  offset="0" style="stop-color:#566DEC"/>
				<stop  offset="1" style="stop-color:#658BFD"/>
			</linearGradient>
			<path class="st31" d="M394.6,182.2c0,0,4.8-21.2,16.1-34.7c0,0,33.7,42.3-10.2,69.1L394.6,182.2z"/>
			<path class="st5" d="M400.2,203.9c0,0,11.2-15,10.5-38.2c0,0-1.3,22.9-11.7,35.7L400.2,203.9z"/>
			<linearGradient id="SVGID_28_" gradientUnits="userSpaceOnUse" x1="426.7324" y1="196.3477" x2="409.6357" y2="184.8172">
				<stop  offset="0" style="stop-color:#8DAEFF"/>
				<stop  offset="1" style="stop-color:#8DAEFF;stop-opacity:0"/>
			</linearGradient>
			<path class="st32" d="M394.6,182.2c0,0,4.8-21.2,16.1-34.7c0,0,33.7,42.3-10.2,69.1L394.6,182.2z"/>
		</g>
		
			<linearGradient id="SVGID_29_" gradientUnits="userSpaceOnUse" x1="-1644.8004" y1="264.28" x2="-1597.3768" y2="283.0199" gradientTransform="matrix(-1 0 0 1 -1605.9022 0)">
			<stop  offset="0" style="stop-color:#4F6AD9"/>
			<stop  offset="1" style="stop-color:#658BFD"/>
		</linearGradient>
		<path class="st33" d="M37.2,246.7c0,0-23.5,5.6-31.9,29.8c0,0,21.2,7.4,41.6,2.8C67.3,274.8,37.2,246.7,37.2,246.7z"/>
		<path class="st5" d="M48.7,261.3c0,0-18.1,2.5-30.1,9.2c0,0,15.6-5.1,34.7-6.6L48.7,261.3z"/>
		<g>
			
				<linearGradient id="SVGID_30_" gradientUnits="userSpaceOnUse" x1="-1670.8674" y1="257.2244" x2="-1630.8445" y2="232.932" gradientTransform="matrix(-1 0 0 1 -1605.9022 0)">
				<stop  offset="0" style="stop-color:#4869D8"/>
				<stop  offset="1" style="stop-color:#658BFD"/>
			</linearGradient>
			<path class="st34" d="M69.2,267.2c0,0-30.3,2.5-40.5-16.1c-10.2-18.6-7.9-27.8-7.9-27.8s41.8-0.8,56.1,30.1L69.2,267.2z"/>
			<path class="st5" d="M67.6,263c0,0-19.3-23.8-43.3-34.5c0,0,27.5,8.7,44.9,32.6L67.6,263z"/>
			
				<linearGradient id="SVGID_31_" gradientUnits="userSpaceOnUse" x1="-1630.8163" y1="269.008" x2="-1651.8188" y2="244.2509" gradientTransform="matrix(-1 0 0 1 -1605.9022 0)">
				<stop  offset="0" style="stop-color:#8DAEFF"/>
				<stop  offset="1" style="stop-color:#8DAEFF;stop-opacity:0"/>
			</linearGradient>
			<path class="st35" d="M69.2,267.2c0,0-30.3,2.5-40.5-16.1c-10.2-18.6-7.9-27.8-7.9-27.8s41.8-0.8,56.1,30.1L69.2,267.2z"/>
		</g>
		<g>
			
				<linearGradient id="SVGID_32_" gradientUnits="userSpaceOnUse" x1="-1689.6294" y1="271.4935" x2="-1635.7041" y2="289.851" gradientTransform="matrix(-1 0 0 1 -1605.9022 0)">
				<stop  offset="0" style="stop-color:#546AEA"/>
				<stop  offset="1" style="stop-color:#658BFD"/>
			</linearGradient>
			<path class="st36" d="M66.6,253.6c-32.4,8.9-33.3,39.6-40.4,55.7c0,0,34.4,5.9,50.7-26.7C81.9,269.6,86.9,254.8,66.6,253.6z"/>
			<path class="st5" d="M68.7,265.7c0,0-20.4,13-28.6,32.4c0,0,18.4-26,31.9-29.6L68.7,265.7z"/>
			
				<linearGradient id="SVGID_33_" gradientUnits="userSpaceOnUse" x1="-1659.9492" y1="314.6485" x2="-1659.6943" y2="291.9553" gradientTransform="matrix(-1 0 0 1 -1605.9022 0)">
				<stop  offset="0" style="stop-color:#8DAEFF"/>
				<stop  offset="1" style="stop-color:#8DAEFF;stop-opacity:0"/>
			</linearGradient>
			<path class="st37" d="M66.6,253.6c-32.4,8.9-33.3,39.6-40.4,55.7c0,0,34.4,5.9,50.7-26.7C81.9,269.6,86.9,254.8,66.6,253.6z"/>
		</g>
		<g>
			
				<linearGradient id="SVGID_34_" gradientUnits="userSpaceOnUse" x1="-1682.4316" y1="228.5516" x2="-1642.7457" y2="200.7714" gradientTransform="matrix(-1 0 0 1 -1605.9022 0)">
				<stop  offset="0" style="stop-color:#546AEA"/>
				<stop  offset="1" style="stop-color:#658BFD"/>
			</linearGradient>
			<path class="st38" d="M79.8,212c0,0-13.8-19.1-53.5-15.8c0,0,6.9,2.1,12.9,17.1c5.9,15,18.8,28.9,41.5,23.5L79.8,212z"/>
			<path class="st5" d="M75.9,227.3c0,0-18.9-18.2-37.5-25.4c0,0,16.5,3.6,39.7,24.1L75.9,227.3z"/>
			
				<linearGradient id="SVGID_35_" gradientUnits="userSpaceOnUse" x1="-1646.1193" y1="233.1384" x2="-1659.8881" y2="215.7999" gradientTransform="matrix(-1 0 0 1 -1605.9022 0)">
				<stop  offset="0" style="stop-color:#8DAEFF"/>
				<stop  offset="1" style="stop-color:#8DAEFF;stop-opacity:0"/>
			</linearGradient>
			<path class="st39" d="M79.8,212c0,0-13.8-19.1-53.5-15.8c0,0,6.9,2.1,12.9,17.1c5.9,15,18.8,28.9,41.5,23.5L79.8,212z"/>
		</g>
		<g>
			
				<linearGradient id="SVGID_36_" gradientUnits="userSpaceOnUse" x1="-1619.3794" y1="-421.0489" x2="-1598.0287" y2="-421.0489" gradientTransform="matrix(-0.9754 -0.2204 -0.2204 0.9754 -1630.729 137.7261)">
				<stop  offset="0" style="stop-color:#546AEA"/>
				<stop  offset="1" style="stop-color:#658BFD"/>
			</linearGradient>
			<path class="st40" d="M39.3,94.3c0,0-5.3-13.6-16.2-25.4C23.1,68.9,29,85.8,39.3,94.3z"/>
			
				<linearGradient id="SVGID_37_" gradientUnits="userSpaceOnUse" x1="-1627.5718" y1="-421.3005" x2="-1616.8398" y2="-421.3005" gradientTransform="matrix(-0.9754 -0.2204 -0.2204 0.9754 -1630.729 137.7261)">
				<stop  offset="0" style="stop-color:#546AEA"/>
				<stop  offset="1" style="stop-color:#658BFD"/>
			</linearGradient>
			<path class="st41" d="M46,101.6c0,0-4.6-17.3-3.2-34.5C42.8,67.1,48.4,85.8,46,101.6z"/>
			
				<linearGradient id="SVGID_38_" gradientUnits="userSpaceOnUse" x1="-1626.6595" y1="-405.2902" x2="-1592.6033" y2="-405.2902" gradientTransform="matrix(-0.9754 -0.2204 -0.2204 0.9754 -1630.729 137.7261)">
				<stop  offset="0" style="stop-color:#546AEA"/>
				<stop  offset="1" style="stop-color:#658BFD"/>
			</linearGradient>
			<path class="st42" d="M12.2,92.5c0,0,15.8,7.8,32.7,9.7C44.9,102.2,27.9,93.1,12.2,92.5z"/>
			
				<linearGradient id="SVGID_39_" gradientUnits="userSpaceOnUse" x1="-1637.1973" y1="-395.2471" x2="-1601.6499" y2="-395.2471" gradientTransform="matrix(-0.9754 -0.2204 -0.2204 0.9754 -1630.729 137.7261)">
				<stop  offset="0" style="stop-color:#546AEA"/>
				<stop  offset="1" style="stop-color:#658BFD"/>
			</linearGradient>
			<path class="st43" d="M18.7,105.1c0,0,16.9,7.6,34.5,8.5C53.2,113.6,35,104.6,18.7,105.1z"/>
			
				<linearGradient id="SVGID_40_" gradientUnits="userSpaceOnUse" x1="-1650.175" y1="-385.076" x2="-1613.7584" y2="-385.076" gradientTransform="matrix(-0.9754 -0.2204 -0.2204 0.9754 -1630.729 137.7261)">
				<stop  offset="0" style="stop-color:#546AEA"/>
				<stop  offset="1" style="stop-color:#658BFD"/>
			</linearGradient>
			<path class="st44" d="M28.2,117.6c0,0,17.2,8.1,35.3,9C63.6,126.5,45,116.9,28.2,117.6z"/>
			
				<linearGradient id="SVGID_41_" gradientUnits="userSpaceOnUse" x1="-1662.194" y1="-373.581" x2="-1626.2628" y2="-373.581" gradientTransform="matrix(-0.9754 -0.2204 -0.2204 0.9754 -1630.729 137.7261)">
				<stop  offset="0" style="stop-color:#546AEA"/>
				<stop  offset="1" style="stop-color:#658BFD"/>
			</linearGradient>
			<path class="st45" d="M37.2,134.8c0,0,18.5,4.6,36.4,2C73.6,136.7,53.5,130.9,37.2,134.8z"/>
			
				<linearGradient id="SVGID_42_" gradientUnits="userSpaceOnUse" x1="-1638.7777" y1="-413.0211" x2="-1631.0193" y2="-413.0211" gradientTransform="matrix(-0.9754 -0.2204 -0.2204 0.9754 -1630.729 137.7261)">
				<stop  offset="0" style="stop-color:#546AEA"/>
				<stop  offset="1" style="stop-color:#658BFD"/>
			</linearGradient>
			<path class="st46" d="M55,112.5c0,0-3-17.6-0.1-34.7C54.9,77.9,58.8,97,55,112.5z"/>
			
				<linearGradient id="SVGID_43_" gradientUnits="userSpaceOnUse" x1="-1652.5283" y1="-405.6172" x2="-1645.8367" y2="-405.6172" gradientTransform="matrix(-0.9754 -0.2204 -0.2204 0.9754 -1630.729 137.7261)">
				<stop  offset="0" style="stop-color:#546AEA"/>
				<stop  offset="1" style="stop-color:#658BFD"/>
			</linearGradient>
			<path class="st47" d="M66.2,124.2c0,0-2.7-19.4,1.9-37.3C68.1,86.9,71.9,108,66.2,124.2z"/>
			
				<linearGradient id="SVGID_44_" gradientUnits="userSpaceOnUse" x1="-1665.0758" y1="-398.4866" x2="-1659.722" y2="-398.4866" gradientTransform="matrix(-0.9754 -0.2204 -0.2204 0.9754 -1630.729 137.7261)">
				<stop  offset="0" style="stop-color:#546AEA"/>
				<stop  offset="1" style="stop-color:#658BFD"/>
			</linearGradient>
			<path class="st48" d="M76.4,134c0,0-1.7-19.5,3.9-37.2C80.3,96.8,83,118.1,76.4,134z"/>
			<path class="st21" d="M84.8,141.9c0,0-17.4-10.5-45-46.7c0,0,26.6,39.5,44.1,50.6L84.8,141.9z"/>
		</g>
		<g>
			
				<linearGradient id="SVGID_45_" gradientUnits="userSpaceOnUse" x1="-1670.4508" y1="700.6386" x2="-1649.1002" y2="700.6386" gradientTransform="matrix(-0.9677 0.252 0.252 0.9677 -1760.2258 -113.3666)">
				<stop  offset="0" style="stop-color:#546AEA"/>
				<stop  offset="1" style="stop-color:#658BFD"/>
			</linearGradient>
			<path class="st49" d="M35.5,153.9c0,0-11-9.6-26-15.1C9.5,138.8,22.4,151.1,35.5,153.9z"/>
			
				<linearGradient id="SVGID_46_" gradientUnits="userSpaceOnUse" x1="-1678.6433" y1="700.3872" x2="-1667.9117" y2="700.3872" gradientTransform="matrix(-0.9677 0.252 0.252 0.9677 -1760.2258 -113.3666)">
				<stop  offset="0" style="stop-color:#546AEA"/>
				<stop  offset="1" style="stop-color:#658BFD"/>
			</linearGradient>
			<path class="st50" d="M44.8,157.3c0,0-12-13.2-18.7-29.2C26.2,128.2,39.7,142.2,44.8,157.3z"/>
			
				<linearGradient id="SVGID_47_" gradientUnits="userSpaceOnUse" x1="-1677.7311" y1="716.3976" x2="-1643.6743" y2="716.3976" gradientTransform="matrix(-0.9677 0.252 0.252 0.9677 -1760.2258 -113.3666)">
				<stop  offset="0" style="stop-color:#546AEA"/>
				<stop  offset="1" style="stop-color:#658BFD"/>
			</linearGradient>
			<path class="st51" d="M10.7,164.8c0,0,17.6-0.3,33.5-6.4C44.2,158.4,24.9,158.1,10.7,164.8z"/>
			
				<linearGradient id="SVGID_48_" gradientUnits="userSpaceOnUse" x1="-1688.2687" y1="726.441" x2="-1652.7208" y2="726.441" gradientTransform="matrix(-0.9677 0.252 0.252 0.9677 -1760.2258 -113.3666)">
				<stop  offset="0" style="stop-color:#546AEA"/>
				<stop  offset="1" style="stop-color:#658BFD"/>
			</linearGradient>
			<path class="st52" d="M22.2,173c0,0,18.5-1,34.6-8.3C56.7,164.7,36.4,165.1,22.2,173z"/>
			
				<linearGradient id="SVGID_49_" gradientUnits="userSpaceOnUse" x1="-1701.2466" y1="736.6124" x2="-1664.8293" y2="736.6124" gradientTransform="matrix(-0.9677 0.252 0.252 0.9677 -1760.2258 -113.3666)">
				<stop  offset="0" style="stop-color:#546AEA"/>
				<stop  offset="1" style="stop-color:#658BFD"/>
			</linearGradient>
			<path class="st53" d="M36.4,179.7c0,0,19-0.7,35.5-8.3C71.9,171.4,51,171.5,36.4,179.7z"/>
			
				<linearGradient id="SVGID_50_" gradientUnits="userSpaceOnUse" x1="-1713.2656" y1="748.1078" x2="-1677.3337" y2="748.1078" gradientTransform="matrix(-0.9677 0.252 0.252 0.9677 -1760.2258 -113.3666)">
				<stop  offset="0" style="stop-color:#546AEA"/>
				<stop  offset="1" style="stop-color:#658BFD"/>
			</linearGradient>
			<path class="st54" d="M52.2,190.9c0,0,18.5-4.4,33.2-15C85.5,175.9,65,180,52.2,190.9z"/>
			
				<linearGradient id="SVGID_51_" gradientUnits="userSpaceOnUse" x1="-1689.8494" y1="708.667" x2="-1682.0913" y2="708.667" gradientTransform="matrix(-0.9677 0.252 0.252 0.9677 -1760.2258 -113.3666)">
				<stop  offset="0" style="stop-color:#546AEA"/>
				<stop  offset="1" style="stop-color:#658BFD"/>
			</linearGradient>
			<path class="st55" d="M57.9,162.9c0,0-10.7-14.3-16-30.7C41.9,132.2,54.1,147.4,57.9,162.9z"/>
			
				<linearGradient id="SVGID_52_" gradientUnits="userSpaceOnUse" x1="-1703.6" y1="716.0713" x2="-1696.9089" y2="716.0713" gradientTransform="matrix(-0.9677 0.252 0.252 0.9677 -1760.2258 -113.3666)">
				<stop  offset="0" style="stop-color:#546AEA"/>
				<stop  offset="1" style="stop-color:#658BFD"/>
			</linearGradient>
			<path class="st56" d="M73.1,168.2c0,0-11.3-15.9-15.4-34C57.7,134.1,70.8,151.2,73.1,168.2z"/>
			
				<linearGradient id="SVGID_53_" gradientUnits="userSpaceOnUse" x1="-1716.1477" y1="723.2022" x2="-1710.7942" y2="723.2022" gradientTransform="matrix(-0.9677 0.252 0.252 0.9677 -1760.2258 -113.3666)">
				<stop  offset="0" style="stop-color:#546AEA"/>
				<stop  offset="1" style="stop-color:#658BFD"/>
			</linearGradient>
			<path class="st57" d="M86.7,172.1c0,0-10.5-16.5-13.6-34.8C73.1,137.3,85.3,155,86.7,172.1z"/>
			<path class="st21" d="M97.9,175.4c0,0-20.3-1.4-61.4-20.9c0,0,41.8,22.9,62.4,24.7L97.9,175.4z"/>
		</g>
		<g>
			
				<linearGradient id="SVGID_54_" gradientUnits="userSpaceOnUse" x1="-1679.5659" y1="203.9317" x2="-1673.4468" y2="160.7149" gradientTransform="matrix(-1 0 0 1 -1605.9022 0)">
				<stop  offset="0" style="stop-color:#566DEC"/>
				<stop  offset="1" style="stop-color:#658BFD"/>
			</linearGradient>
			<path class="st58" d="M84.9,182.2c0,0-4.8-21.2-16.1-34.7c0,0-33.7,42.3,10.2,69.1L84.9,182.2z"/>
			<path class="st5" d="M79.3,203.9c0,0-11.2-15-10.5-38.2c0,0,1.3,22.9,11.7,35.7L79.3,203.9z"/>
			
				<linearGradient id="SVGID_55_" gradientUnits="userSpaceOnUse" x1="-1658.7036" y1="196.3476" x2="-1675.8002" y2="184.8172" gradientTransform="matrix(-1 0 0 1 -1605.9022 0)">
				<stop  offset="0" style="stop-color:#8DAEFF"/>
				<stop  offset="1" style="stop-color:#8DAEFF;stop-opacity:0"/>
			</linearGradient>
			<path class="st59" d="M84.9,182.2c0,0-4.8-21.2-16.1-34.7c0,0-33.7,42.3,10.2,69.1L84.9,182.2z"/>
		</g>
		<g>
			<path class="st60" d="M402.6,91.8v199.7c0,2.4-2,4.4-4.4,4.4H80.4c-3.1,0-5.7-2.5-5.7-5.7V91.8c0-2.3,0.4-4.5,1.2-6.5
				c2.6-6.7,9.1-11.5,16.8-11.5h291.8c7.7,0,14.2,4.8,16.8,11.5C402.1,87.4,402.6,89.6,402.6,91.8z"/>
			<path class="st61" d="M402.6,91.8v182.4H74.7V91.8c0-2.3,0.4-4.5,1.2-6.5h325.4C402.1,87.4,402.6,89.6,402.6,91.8z"/>
			<circle class="st61" cx="238.8" cy="284.2" r="5.8"/>
			<circle class="st62" cx="198.8" cy="79.6" r="2.5"/>
			<linearGradient id="SVGID_56_" gradientUnits="userSpaceOnUse" x1="236.5659" y1="270.5362" x2="238.1425" y2="320.9878">
				<stop  offset="0" style="stop-color:#A6AEB2"/>
				<stop  offset="1" style="stop-color:#DBDCDD"/>
			</linearGradient>
			<polygon class="st63" points="286.4,325.4 190.1,325.5 200,321 205.7,295.9 271.1,295.9 276.4,321.3 			"/>
			<path class="st64" d="M286.1,326.7h-95.4c-0.3,0-0.6-0.3-0.6-0.6v-0.4c0-0.3,0.3-0.6,0.6-0.6h95.4c0.3,0,0.6,0.3,0.6,0.6v0.4
				C286.7,326.4,286.4,326.7,286.1,326.7z"/>
			<line class="st65" x1="210.2" y1="79.6" x2="280.6" y2="79.6"/>
			<rect x="86.7" y="93.6" class="st66" width="303.9" height="173.7"/>
			<path class="st62" d="M119,114v13.4h-10.2c-3.7,0-6.7-3-6.7-6.7c0-1.9,0.7-3.5,2-4.7c1.2-1.2,2.9-2,4.7-2H119z"/>
			<rect x="86.7" y="93.6" class="st67" width="303.9" height="9.1"/>
			<path class="st68" d="M186.4,120.7c0,1.9-0.7,3.5-2,4.7c-1.2,1.2-2.9,2-4.7,2H119V114h60.7C183.4,114,186.4,117,186.4,120.7z"/>
			<rect x="101.9" y="141.9" class="st69" width="37.4" height="37.4"/>
			<rect x="149" y="141.9" class="st69" width="37.4" height="37.4"/>
			<rect x="194.2" y="141.9" class="st69" width="37.4" height="37.4"/>
			<rect x="101.9" y="193" class="st69" width="37.4" height="37.4"/>
			<rect x="149" y="193" class="st69" width="37.4" height="37.4"/>
			<rect x="194.2" y="193" class="st69" width="37.4" height="37.4"/>
			<rect x="202.5" y="128.9" class="st62" width="43" height="43"/>
			<path class="st69" d="M157.9,260.2h-53.2c-1.5,0-2.8-1.2-2.8-2.8l0,0c0-1.5,1.2-2.8,2.8-2.8h53.2c1.5,0,2.8,1.2,2.8,2.8l0,0
				C160.7,258.9,159.4,260.2,157.9,260.2z"/>
			<path class="st69" d="M234.2,260.2H181c-1.5,0-2.8-1.2-2.8-2.8l0,0c0-1.5,1.2-2.8,2.8-2.8h53.2c1.5,0,2.8,1.2,2.8,2.8l0,0
				C236.9,258.9,235.7,260.2,234.2,260.2z"/>
			<path class="st69" d="M363.1,260.2h-53.2c-1.5,0-2.8-1.2-2.8-2.8l0,0c0-1.5,1.2-2.8,2.8-2.8h53.2c1.5,0,2.8,1.2,2.8,2.8l0,0
				C365.8,258.9,364.6,260.2,363.1,260.2z"/>
			<rect x="297.1" y="141.9" class="st69" width="22.5" height="22.5"/>
			<rect x="297.1" y="169.1" class="st69" width="22.5" height="22.5"/>
			<rect x="324.8" y="141.9" class="st69" width="22.5" height="22.5"/>
			<rect x="324.8" y="169.1" class="st69" width="22.5" height="22.5"/>
			<rect x="353.2" y="141.9" class="st69" width="22.5" height="22.5"/>
			<rect x="353.2" y="169.1" class="st69" width="22.5" height="22.5"/>
			<path class="st70" d="M301.6,211.7h74.1v-9.1h-74.1c-2.5,0-4.5,2-4.5,4.5l0,0C297.1,209.7,299.1,211.7,301.6,211.7z"/>
			<path class="st70" d="M301.6,226.1h74.1V217h-74.1c-2.5,0-4.5,2-4.5,4.5l0,0C297.1,224.1,299.1,226.1,301.6,226.1z"/>
			<path class="st70" d="M335.1,240.5h40.6v-9.1h-40.6c-1.9,0-3.4,1.5-3.4,3.4v2.4C331.7,239,333.2,240.5,335.1,240.5z"/>
			<path class="st71" d="M111.3,117.9c-1-1.1-2.7-1.1-3.8,0c-1.1,1-1.1,2.7,0,3.8c0.9,0.9,2.3,1,3.3,0.4l2.5,2.5
				c0.3,0.3,0.7,0.3,1,0c0.3-0.3,0.3-0.7,0-1l-2.5-2.6C112.3,120,112.1,118.7,111.3,117.9z M110.7,121.1c-0.8,0.7-2,0.7-2.7,0
				c-0.7-0.8-0.7-2,0-2.7c0.8-0.7,2-0.7,2.7,0C111.4,119.2,111.4,120.4,110.7,121.1z"/>
		</g>
		<g>
			<path class="st72" d="M83.5,413c0,0-1.8,4.6-1.5,8.6c0,0,4.6,1.2,10.1-0.4c3.5-1,11.7-1.6,12.1-4c1.8-10.7-4.7,0.8-12.6-5.1
				L83.5,413z"/>
			<path class="st72" d="M117.8,413c0,0-1.8,4.6-1.5,8.6c0,0,4.6,1.2,10.1-0.4c3.5-1,12.8-0.2,13.8-2.4c4.3-9.1-6.3-0.8-14.3-6.7
				L117.8,413z"/>
			<linearGradient id="SVGID_57_" gradientUnits="userSpaceOnUse" x1="137.1625" y1="273.8552" x2="99.924" y2="382.6813">
				<stop  offset="0" style="stop-color:#24247F"/>
				<stop  offset="1" style="stop-color:#2D2D96"/>
			</linearGradient>
			<path class="st73" d="M134.6,286.9c0,34.9-4.2,75.6-6.9,121.9c-0.1,1.4-0.2,2.9-0.3,4.3h-9.8l-0.1-4.3l-0.9-55.5l-2.4-33.2
				l-0.9-13.1l-0.2,0.8l-19.6,101l-0.8,4.3h-9.3c0-1.4,0-2.9,0.1-4.3c0.6-26,3.8-56.8,8.4-90.1l1.5-27.8c0,0,21.4-8.7,35.2-6.2
				C130.9,285,132.9,285.8,134.6,286.9z"/>
			<linearGradient id="SVGID_58_" gradientUnits="userSpaceOnUse" x1="112.7772" y1="289.2779" x2="87.1785" y2="438.7095">
				<stop  offset="0" style="stop-color:#242463"/>
				<stop  offset="1" style="stop-color:#242463;stop-opacity:0"/>
			</linearGradient>
			<path class="st74" d="M113.2,307.8l-19.6,101l-0.8,4.3h-3.8c1.1-15.1,5.9-41,10.2-53.4c3.1-9,1.7-19.8,4-33.6
				c2.3-13.7,9-30.4,9-30.4L113.2,307.8z"/>
			<linearGradient id="SVGID_59_" gradientUnits="userSpaceOnUse" x1="139.9008" y1="279.5779" x2="112.6743" y2="438.5122">
				<stop  offset="0" style="stop-color:#242463"/>
				<stop  offset="1" style="stop-color:#242463;stop-opacity:0"/>
			</linearGradient>
			<path class="st75" d="M134.6,286.9c0,34.9-4.2,75.6-6.9,121.9c-0.1,1.4-0.2,2.9-0.3,4.3h-2.3c-1.3-15.4,1.4-43.6,3.6-68.1
				c1.2-13.8,0.6-30.3,0-40.6c-0.3-5.9-0.3-14.1-0.2-19.7C130.9,285,132.9,285.8,134.6,286.9z"/>
			<path class="st21" d="M105.9,216.3c0,0-6.2,5.8-9.5-0.6c-3.3-6.4-13-18.5-5.7-20.8c0,0-1.8-2.6,0.2-5.4c0,0-0.7,1.9,1,4.2
				c0,0-2.3-6.7,8.3-7.8c10.7-1.1,10.5-6.2,10.5-6.2s0.7,1.8,0.2,4.2c0,0,1-1,1.3-4.6c0,0,3,4.3,0.8,10.9c0,0,1-1.8,1.5-3.5
				c0,0,0.2,8.2-3.2,11.6l0.8,12.4L105.9,216.3z"/>
			<linearGradient id="SVGID_60_" gradientUnits="userSpaceOnUse" x1="99.6971" y1="210.3304" x2="115.8823" y2="210.3304">
				<stop  offset="0" style="stop-color:#546AEA"/>
				<stop  offset="1" style="stop-color:#658BFD"/>
			</linearGradient>
			<path class="st76" d="M114.5,217.5c0,0.1-0.1,0.1-0.2,0.2c-1.1,1.1-4.3-0.2-4.3-0.2l1.5,5.9l0,0.2l-2,0.4c0,0,0,0,0,0l-0.9,0.2
				c0,0,0,0,0,0l-8.9,1.7l0.8-7c8.8-1,8.8-11.5,8.8-11.5c-3,1-4.7-6.9-2.3-6.7c2.3,0.2,3.7,5.8,3.7,5.8c0.2-1.9-0.1-4.1-0.3-5.6
				c-0.2-1.1-0.4-1.8-0.4-1.8c2.3-1.3,3.3-4.2,3.3-4.2c0.1,0.3,0.2,0.7,0.4,1C117.5,207.3,115.3,216.1,114.5,217.5z"/>
			<path class="st77" d="M110,217.5l1.5,5.9c-0.7,0.2-1.4,0.4-1.9,0.5c0,0,0,0,0,0c-0.5,0.1-0.8,0.2-0.9,0.2c0,0,0,0,0,0l0.8-11
				c1.2,4.3,3,4,4.9,4.6C113.3,218.8,110,217.5,110,217.5z"/>
			<path class="st77" d="M113.7,195.9c-0.6,2.2-2.4,4-3.3,4.9c-0.2-1.1-0.4-1.8-0.4-1.8c2.3-1.3,3.3-4.2,3.3-4.2
				C113.5,195.2,113.6,195.5,113.7,195.9z"/>
			<linearGradient id="SVGID_61_" gradientUnits="userSpaceOnUse" x1="134.099" y1="238.4893" x2="150.6878" y2="219.6236">
				<stop  offset="0" style="stop-color:#546AEA"/>
				<stop  offset="1" style="stop-color:#658BFD"/>
			</linearGradient>
			<path class="st78" d="M133,234.8c0,0,7-6.7,7.7-8.6c0.7-1.9,2.3-5.4,4.7-5.9l-0.7,3.9c0,0,1.8-0.7,2.2-1c0.3-0.3,0.5-2.7,0.8-2.7
				c0.3,0,1.2,3.7,0.3,4.6c-0.8,1-2.7,2.7-4.7,3.1l-1.4,4.9l-3.1,6.8L133,234.8z"/>
			<path class="st79" d="M161.3,196.6c0,0,5.4,1.2,8,0.9c2.7-0.3,10.6-6.9,12-9.1c1.4-2.1-14.6,0.7-14.6,0.7L161.3,196.6z"/>
			<path class="st79" d="M210.5,156.9c-5.7,23.3-27.4,38.3-48.5,33.5c-21-4.8-33.4-27.5-27.7-50.8s27.4-38.3,48.5-33.5
				C203.8,110.9,216.2,133.6,210.5,156.9z"/>
			<linearGradient id="SVGID_62_" gradientUnits="userSpaceOnUse" x1="97.3675" y1="226.6993" x2="114.5073" y2="226.6993">
				<stop  offset="0" style="stop-color:#E1E1E1"/>
				<stop  offset="1" style="stop-color:#FFFFFF"/>
			</linearGradient>
			<path class="st80" d="M114.5,226.6l-2.2-4c0,0-7.8-1.3-15,3v5.3L114.5,226.6z"/>
			<path class="st81" d="M178.6,105.1c-21-4.8-42.7,10.2-48.5,33.5c-4.5,18.1,2,35.8,15,45.1l0.7,3.4c0.5,2.5,2.2,4.7,4.6,6
				c0.8,0.5,1.7,0.9,2.6,1.3l-21.8,76.3l3.2,17.9l27-91.9c0.3,0,0.6,0.1,1,0.1c2.3,0.2,4.5-0.5,6.3-1.9l8.5-6.3l0,0
				c13.7-4.4,25.2-16.5,29.2-32.6C212,132.6,199.6,109.9,178.6,105.1z"/>
			<linearGradient id="SVGID_63_" gradientUnits="userSpaceOnUse" x1="150.0959" y1="244.6942" x2="155.2373" y2="210.2168">
				<stop  offset="0" style="stop-color:#546AEA"/>
				<stop  offset="1" style="stop-color:#658BFD"/>
			</linearGradient>
			<path class="st82" d="M162.5,199.4c-0.4,3.2-0.4,6-0.6,6.4c-0.9,1.9-1.5,3.1-3.2,5.5c-0.5,0.7-0.8,1.8-1.1,3.2
				c-0.6,3.7-0.6,10.5-1.2,14.6c-0.5,3.2-1.1,7.2-1.6,10.6c-0.2,1.1-0.3,2.2-0.5,3.1c-0.3,2.2-0.5,3.7-0.5,3.7l-9.2-4.9
				c0.2-1,0.4-1.9,0.7-2.7c0.1-0.3,0.2-0.5,0.2-0.8c0.4-1.2,0.7-2.2,1.1-3.3c1-2.8,2-5.4,3.1-9.2c1.7-5.4,2.4-13,2.4-13
				c-1.8-3.8-1.5-10.4-1.4-11.7c0-1.5,0.1-2.8,0.7-2.4c1.3,1,1.4,2.8,1.4,2.8s-0.1,2.8,0.9,3.4c0.2,0.1,0.2,0.1,1.2,0.1
				c3-0.2,4.5-1.1,4.5-1.1l1.8-5.7C161.2,197.9,162.6,198.4,162.5,199.4z"/>
			<path class="st77" d="M154.9,239.7c-0.2,1.1-0.3,2.2-0.5,3.1l-9.1-3.9c0.1-0.3,0.2-0.5,0.2-0.8c0.4-1.2,0.7-2.2,1.1-3.3
				L154.9,239.7z"/>
			<linearGradient id="SVGID_64_" gradientUnits="userSpaceOnUse" x1="112.8298" y1="303.3186" x2="120.8287" y2="221.089">
				<stop  offset="0" style="stop-color:#E1E1E1"/>
				<stop  offset="1" style="stop-color:#FFFFFF"/>
			</linearGradient>
			<path class="st83" d="M154.3,244.8c0,0-1.5,6-3.1,9.8c-0.6,1.5-1.2,2.6-1.7,3c-1.8,1.4-17.2-8.4-17.2-8.4l0.2,3.8c0,0,0,0,0,0
				l1.8,29.4l0.3,4.4c0,0-17,10.4-41.3,5l0.2-3.6l0.8-12.3l0.2-2.6v0l0.2-2.4c0,0,0,0,0,0c0,0,0-0.1,0-0.1c0,0,0,0-0.1-0.1
				c-0.9-0.8-7-6.1-8.2-10.6c-2.4-8.5-4.5-24.3-1.7-26.2c1.6-1.1,3.4-2.1,5.2-3c14.5-7.2,35.1-9,37.2-6.7c0.2,0.2,0.4,0.4,0.6,0.7
				c9.2,9.6,16,18.2,16,18.2l1.7-3.5L154.3,244.8z"/>
			<linearGradient id="SVGID_65_" gradientUnits="userSpaceOnUse" x1="122.8487" y1="268.9374" x2="150.3244" y2="232.8855">
				<stop  offset="0" style="stop-color:#BCCACE"/>
				<stop  offset="1" style="stop-color:#BCCACE;stop-opacity:0"/>
			</linearGradient>
			<path class="st84" d="M151.2,254.7c-0.6,1.5-1.2,2.6-1.7,3c-1.8,1.4-17.3-8.5-17.3-8.5s-1-5.8-2.3-13.4c2.8,7.5,3.4,10.3,7.8,12
				C144,250.2,145.5,257,151.2,254.7z"/>
			<linearGradient id="SVGID_66_" gradientUnits="userSpaceOnUse" x1="104.0036" y1="253.5197" x2="66.7804" y2="255.5138">
				<stop  offset="0" style="stop-color:#BCCACE"/>
				<stop  offset="1" style="stop-color:#BCCACE;stop-opacity:0"/>
			</linearGradient>
			<path class="st85" d="M94.7,267.4c-0.2-0.1-0.5-0.4-0.9-0.8c-0.8-2.4-1.8-5.6-1.9-6.7c-0.2-1.8,0-19.2,0-19.2
				C94.8,251.2,94.7,263,94.7,267.4z"/>
			<linearGradient id="SVGID_67_" gradientUnits="userSpaceOnUse" x1="116.0615" y1="299.5195" x2="102.772" y2="171.3156">
				<stop  offset="0" style="stop-color:#F4BA38"/>
				<stop  offset="1" style="stop-color:#FFD349"/>
			</linearGradient>
			<path class="st86" d="M134.4,282.5c-1.7,0.8-3.3,1.5-4.9,2.1c-15.7,6.3-28.3,5.4-35.9,3.6l0.8-12.3c0.1-0.8,0.1-1.6,0.2-2.6v0
				c0-0.9,0-1.8,0-2.7c0.1-16.7-2.7-31.5-4.6-39.8c14.5-7.2,35.1-9,37.2-6.7c0.2,0.2,0.4,0.4,0.6,0.7c1.3,5.1,2.4,10.5,3.2,16
				c0.6,4.2,1.1,8.3,1.5,12.2c0,0,0,0,0,0L134.4,282.5z"/>
			<path class="st87" d="M201.4,151.6c-0.2,1-0.4,2-0.6,3c-3.4,13.6-13.2,24-24.8,27.8c-3.7,1.2-7.6,1.8-11.5,1.5
				c-1.7-0.1-3.4-0.3-5.1-0.7c-3-0.7-5.8-1.8-8.3-3.3c-12.7-7.3-19.4-23.6-15.3-40.1c4.9-19.9,23.4-32.7,41.4-28.6
				c3.4,0.8,6.6,2.1,9.4,3.9c8,5,13.4,13.6,15,23.6C202.1,142.9,202.1,147.2,201.4,151.6z"/>
			<path class="st88" d="M153.6,187.9"/>
			<path class="st79" d="M184.4,114c-0.9-0.3-1.7-0.5-2.6-0.7c-18-4.1-36.5,8.7-41.4,28.6c-4.2,17,2.9,33.6,16.3,40.6
				c-16.4-5.3-25.7-23.8-21.1-42.7c4.9-19.9,23.4-32.7,41.4-28.6C179.7,111.9,182.2,112.8,184.4,114z"/>
			<polygon class="st89" points="143.2,241.1 145.5,237.1 154.9,241.1 154.7,248.3 			"/>
			<linearGradient id="SVGID_68_" gradientUnits="userSpaceOnUse" x1="223.8939" y1="212.3875" x2="156.2202" y2="125.2461">
				<stop  offset="0" style="stop-color:#FFFFFF"/>
				<stop  offset="1" style="stop-color:#FFFFFF;stop-opacity:0"/>
			</linearGradient>
			<path class="st90" d="M175.9,182.4l25.4-30.8c-0.2,1-0.4,2-0.6,3C197.4,168.3,187.6,178.6,175.9,182.4z"/>
			<linearGradient id="SVGID_69_" gradientUnits="userSpaceOnUse" x1="221.8761" y1="214.4953" x2="152.8011" y2="125.5495">
				<stop  offset="0" style="stop-color:#FFFFFF"/>
				<stop  offset="1" style="stop-color:#FFFFFF;stop-opacity:0"/>
			</linearGradient>
			<path class="st91" d="M201.4,138.7l-37,45.2c-1.7-0.1-3.4-0.3-5.1-0.7c-3-0.7-5.8-1.8-8.3-3.3l35.4-64.8
				C194.4,120.2,199.8,128.8,201.4,138.7z"/>
			<linearGradient id="SVGID_70_" gradientUnits="userSpaceOnUse" x1="133.9833" y1="296.1031" x2="124.3055" y2="207.188">
				<stop  offset="0" style="stop-color:#FF911E"/>
				<stop  offset="1" style="stop-color:#FE931E;stop-opacity:0"/>
			</linearGradient>
			<path class="st92" d="M129.5,284.6c1.1-18.2,0.4-45.9,0.4-45.9l1.1,2.2c0.6,4.2,1.1,8.3,1.5,12.2c0,0,0,0,0,0l1.8,29.4
				C132.7,283.3,131.1,284,129.5,284.6z"/>
		</g>
		<g>
			<path class="st21" d="M388,214.7c0,0-0.8-2.7,0.3-9.9c1.2-7.2,0.9-11.4-3.2-10.5c0,0,1.2-6.9-6.5-6.5c0,0,3.6,0.4,3.6,3.2
				c0,0-2.6-4.3-9.5-0.3c-6.9,4-10.9,2.9-10.9,2.9s1.2,1,3.2,1.4c0,0-3,0.7-6.3-0.4c0,0,3.7,5.8,8.9,5.9c0,0-2.2,0.6-4.7-0.6
				c0,0,3.9,2.9,8.8,2l11,8.9L388,214.7z"/>
			<linearGradient id="SVGID_71_" gradientUnits="userSpaceOnUse" x1="391.2941" y1="225.5629" x2="372.5189" y2="203.5224">
				<stop  offset="0" style="stop-color:#546AEA"/>
				<stop  offset="1" style="stop-color:#658BFD"/>
			</linearGradient>
			<path class="st93" d="M391.3,218.2c-1,2.1-3.8,5.9-10.2,7.2l-0.6-5.2l-0.4-3.4c0,0-0.5,0.4-1.3,0.9c-1.2,0.7-3,1.7-4.6,1.7
				c-2.5,0-5.1-15.1-5.6-17.6c0-0.2-0.1-0.3-0.1-0.3c5.5-0.5,7.7-2.4,7.7-2.4c0.1,0.9,0.4,1.7,0.7,2.5c1.6,3.7,5,5.3,5,5.3
				c-0.9-3,1-5.9,2.3-3.9c1.3,2-0.6,5-0.6,5c2.6,5.5,6.9,9.8,6.9,9.8C390.9,217.9,391.1,218,391.3,218.2z"/>
			<path class="st72" d="M406,389c0,0-25.3,0.7-26.5-0.4c-1.5-1.4,14.9-6.3,17.5-7.1c4,0.6,6.5,0.2,7.6-0.1
				C406.3,383.4,406,389,406,389z"/>
			<linearGradient id="SVGID_72_" gradientUnits="userSpaceOnUse" x1="399.3361" y1="264.6608" x2="401.7851" y2="345.8836">
				<stop  offset="0" style="stop-color:#24247F"/>
				<stop  offset="1" style="stop-color:#2D2D96"/>
			</linearGradient>
			<path class="st94" d="M404.6,377.8v0.2c-1.2,0.2-2.6,0.2-3.8,0.2c-1.7,0-3.2-0.2-3.8-0.2l0-0.3c0,0-4-38.5-5.6-47.7
				c-1.6-9.2-2.2-35.2-6-49.2l19.5-3.1l9.4-1.5c0,0-5,32.8-7.2,46.4C404.9,336.2,410.3,340.4,404.6,377.8z"/>
			<path class="st95" d="M404.6,381.4c-1.2,0.3-3.6,0.7-7.6,0.1c0.2,0,0.2-0.1,0.2-0.1L397,378c1.1,0.1,4.6,0.4,7.6,0v3.3
				C404.6,381.3,404.6,381.3,404.6,381.4z"/>
			<linearGradient id="SVGID_73_" gradientUnits="userSpaceOnUse" x1="408.6286" y1="259.9284" x2="405.3634" y2="368.9054">
				<stop  offset="0" style="stop-color:#242463"/>
				<stop  offset="1" style="stop-color:#242463;stop-opacity:0"/>
			</linearGradient>
			<path class="st96" d="M404.6,377.8v0.2c-1.2,0.2-2.6,0.2-3.8,0.2c4.8-10.9,4.2-34.6,2.2-40.1c-2.3-6.5-3.6-9.6-1-20.4
				c2.6-10.8,1.9-37.4,1.9-37.4c0.2-1,0.6-1.9,1-2.7l9.4-1.5c0,0-5,32.8-7.2,46.4C404.9,336.2,410.3,340.4,404.6,377.8z"/>
			
				<rect x="353.4" y="212" transform="matrix(0.9951 -9.861970e-02 9.861970e-02 0.9951 -19.5182 35.9872)" class="st97" width="1.6" height="6.9"/>
			<path class="st98" d="M354.7,214.2l-1.3,0.1c-0.4,0-0.8-0.3-0.8-0.6l-1.3-12.9c0-0.4,0.3-0.8,0.6-0.8l1.3-0.1
				c0.4,0,0.8,0.3,0.8,0.6l1.3,12.9C355.4,213.8,355.1,214.2,354.7,214.2z"/>
			<linearGradient id="SVGID_74_" gradientUnits="userSpaceOnUse" x1="373.0552" y1="261.0555" x2="360.4023" y2="225.9542">
				<stop  offset="0" style="stop-color:#546AEA"/>
				<stop  offset="1" style="stop-color:#658BFD"/>
			</linearGradient>
			<path class="st99" d="M377.5,250.7c-0.3,0.3-0.9,0.8-1.7,1.4c-2.9,2.2-8.6,5.9-12.1,7c-1.1,0.4-2,0.4-2.5,0.1
				c-2.6-1.8-5-19.3-6-27.1c0,0,0-0.1,0-0.1c-0.1-0.7-0.2-1.3-0.2-1.8c0,0,0,0,0,0c-0.1-1.2-0.2-1.9-0.2-1.9s0,0,0,0
				c-0.2,0.1-1.5,0.3-3-0.6c-1.6-1,1-9.5,1-9.5s-2.3,0-2.3-0.9c0-0.9,6.5-3.3,6.9-2c0.4,1.3,1.2,12.1,3.9,18.7
				c0.8,2,1.5,3.7,2.1,5.3c0,0,0,0,0,0c0,0,0,0,0,0c0,0,0,0,0,0c1.5,3.7,2.3,6,2.3,6c0.8-0.3,1.5-0.6,2.3-1c4.4-2.5,8.3-7.2,8.3-7.2
				l0.7,7.8L377.5,250.7z"/>
			<path class="st77" d="M367.7,252.1c-1.4-4.1-4.2-12-4.5-12.8c1.5,3.7,2.3,6,2.3,6c0.8-0.3,1.5-0.6,2.3-1
				C368.1,248.6,367.7,252.1,367.7,252.1z"/>
			<path class="st77" d="M363.7,259.1c-1.1,0.4-2,0.4-2.5,0.1c-2.6-1.8-5-19.3-6-27.1c0,0,0-0.1,0-0.1c-0.1-0.6-0.1-1.2-0.2-1.8
				c0,0,0,0,0,0c-0.1-0.6-0.2-1.3-0.2-1.9c-0.3-2.5-0.7-4.7-0.7-4.8c2.7,5.5,3,13.1,4.2,17.7c1.2,4.6,3,5.3,3.7,12.8
				C362.1,256.7,362.8,258.2,363.7,259.1z"/>
			<path class="st77" d="M377.5,250.7c-0.3,0.3-0.9,0.8-1.7,1.4l-2-12.3l3.2,5.2L377.5,250.7z"/>
			<linearGradient id="SVGID_75_" gradientUnits="userSpaceOnUse" x1="391.1397" y1="231.1807" x2="376.4462" y2="244.2416">
				<stop  offset="0" style="stop-color:#E1E1E1"/>
				<stop  offset="1" style="stop-color:#FFFFFF"/>
			</linearGradient>
			<path class="st100" d="M385.3,248.1c0,0-3.3,5.2-6.6,6.6c0,0-1.9-6.8-4.9-15c0,0,7.5-7.2,8.5-13.7L385.3,248.1z"/>
			<linearGradient id="SVGID_76_" gradientUnits="userSpaceOnUse" x1="401.5574" y1="294.9565" x2="388.9046" y2="232.5088">
				<stop  offset="0" style="stop-color:#F4BA38"/>
				<stop  offset="1" style="stop-color:#FFD349"/>
			</linearGradient>
			<path class="st101" d="M415.3,275c-9.8,11.1-35.1,11.2-35.1,11.2c2.2-8.1,4-28.3,2.6-40.1c-1.4-11.8-1.7-20.4-1.7-20.4l0-0.3
				c6.5-1.3,9.2-5.1,10.2-7.2c9.1,5.5,14.8,15,18.3,24.8c2.3,6.3,3.7,12.7,4.5,18.1C415.3,269.1,415.3,275,415.3,275z"/>
			<path class="st77" d="M380.5,220.2l-0.4-3.4c0,0-0.5,0.4-1.3,0.9c1.3-1,2.5-2.6,3.5-4.7C382.3,213,382.5,217,380.5,220.2z"/>
			<path class="st77" d="M377,201.5c-3.2,0.7-6.7,0.4-8.4,0.3c0-0.2-0.1-0.3-0.1-0.3c5.5-0.5,7.7-2.4,7.7-2.4
				C376.4,200,376.6,200.8,377,201.5z"/>
			<linearGradient id="SVGID_77_" gradientUnits="userSpaceOnUse" x1="417.1324" y1="212.5616" x2="378.5929" y2="314.9499">
				<stop  offset="0" style="stop-color:#FF911E"/>
				<stop  offset="1" style="stop-color:#FE931E;stop-opacity:0"/>
			</linearGradient>
			<path class="st102" d="M414.1,261.1l-15.5,13.4l-4.3-3.9c0,0,7.8-18.7,7-21.4c-0.7-2.7-8.1-13.5-8.1-13.5
				c5.9,0.1,11.7,3.4,16.4,7.2C411.9,249.3,413.3,255.7,414.1,261.1z"/>
			<linearGradient id="SVGID_78_" gradientUnits="userSpaceOnUse" x1="413.6107" y1="241.2018" x2="395.6519" y2="270.9971">
				<stop  offset="0" style="stop-color:#546AEA"/>
				<stop  offset="1" style="stop-color:#658BFD"/>
			</linearGradient>
			<path class="st103" d="M407,262.3c-6.3,8.5-8.5,12.1-8.5,12.1s0,0,0.1,0.1c0.3,0.3,0.9,0.9,1.4,1.6c0.5,0.8,0.8,1.7,0,2.1
				c-3,1.9-3.3,3.2-5.8,2.9c-1.3-0.2-1.9-0.4-2.3-1c0,0,0,0,0,0c-0.3-0.5-0.5-1.2-0.7-2.2c-0.3-1.4,1.2-3.3,3-7.3
				c1.9-4,5.3-10.5,7.9-17.3c1.3-3.4,2.4-5.7,3.1-7c0,0,0,0,0,0c0,0,0,0,0,0c0.1-0.1,0.1-0.2,0.2-0.3c0,0,0-0.1,0.1-0.1
				c0.2-0.3,0.3-0.6,0.5-0.8c0,0,0-0.1,0.1-0.1c0,0,0,0,0-0.1c0,0,0,0,0,0c0,0,0,0,0,0c0,0,0,0,0-0.1c0,0,0-0.1,0.1-0.1
				c0.1-0.1,0.1-0.2,0.1-0.2l-2.6-1.6c0,0,0,0,0,0l2.6-4.5l3.3-5.7c0,0,6.1,5.2,7.7,7.8c0.1,0.1,0.2,0.3,0.2,0.4
				C418.8,243.3,413.3,253.8,407,262.3z"/>
			<path class="st77" d="M410.3,240.8c-2.7,1.7-4.6,5-4.9,5.5c0.1-0.1,0.1-0.2,0.2-0.3c0,0,0-0.1,0.1-0.1c0.2-0.3,0.3-0.6,0.5-0.8
				c0,0,0-0.1,0.1-0.1c0,0,0,0,0-0.1c0,0,0,0,0,0c0,0,0,0,0,0c0,0,0,0,0-0.1c0,0,0-0.1,0.1-0.1c0.1-0.1,0.1-0.2,0.1-0.2l-2.6-1.6
				c0,0,0,0,0,0c0-0.1,1.2-4.6,2.6-4.5c0.2,0,0.5,0.2,0.7,0.5C408.9,241,410.3,240.8,410.3,240.8z"/>
			<linearGradient id="SVGID_79_" gradientUnits="userSpaceOnUse" x1="392.0117" y1="278.6845" x2="400.5717" y2="278.6845">
				<stop  offset="0" style="stop-color:#EF6F6F"/>
				<stop  offset="1" style="stop-color:#EF6F6F;stop-opacity:0"/>
			</linearGradient>
			<path class="st104" d="M400.1,278.3c-3,1.9-3.3,3.2-5.8,2.9c-1.3-0.2-1.9-0.4-2.3-1c0,0,0,0,0,0c1,0.9,4.4,0.6,5.8-1.3
				c0.6-0.8,1.4-1.8,2.3-2.7C400.6,277,400.9,277.8,400.1,278.3z"/>
			<path class="st77" d="M407,262.3c-6.3,8.5-8.5,12.1-8.5,12.1s0,0,0.1,0.1c-1.4,1.1-2.4,2-2.4,2c1.9-3.3,7.3-12.8,9.1-16.5
				c1.7-3.7,2.9-6,8.2-12.8c2.3-2.9,3.4-5.2,4-6.7c0.1,0.1,0.2,0.3,0.2,0.4C418.8,243.3,413.3,253.8,407,262.3z"/>
			<linearGradient id="SVGID_80_" gradientUnits="userSpaceOnUse" x1="394.6151" y1="208.4056" x2="402.37" y2="241.4662">
				<stop  offset="0" style="stop-color:#E1E1E1"/>
				<stop  offset="1" style="stop-color:#FFFFFF"/>
			</linearGradient>
			<path class="st105" d="M410.7,232.1c0,0-13.1-10.2-18.4-8.3s-3.7,8.2,0,11.2c3.7,3,6.8,5.5,11.5,10.4
				C403.8,245.4,410.7,237.6,410.7,232.1z"/>
		</g>
		<g>
			<path class="st72" d="M264.1,471.5h-16c-0.7,0-0.4-4.9,0.2-9.2c2,2.8,3.6,2.1,4.8,0.7c0.6-0.7,1.7-1.5,2.6-2
				c0.3-0.2,0.7,0.1,0.7,0.5c-0.3,1.8,0,3.2,0.2,3.7c0.4,0.9,12.1,3.3,13.2,3.1C270.9,468,273.1,471.5,264.1,471.5z"/>
			<linearGradient id="SVGID_81_" gradientUnits="userSpaceOnUse" x1="248.3246" y1="461.7139" x2="255.9829" y2="461.7139">
				<stop  offset="0" style="stop-color:#546AEA"/>
				<stop  offset="1" style="stop-color:#658BFD"/>
			</linearGradient>
			<path class="st106" d="M256,461.1c-0.8,0.3-2,0.9-2.8,1.9c-1.2,1.4-2.8,2.6-4.8-0.2c0.2-1.2-0.1-2.8,0.2-3.7h7.2
				C255.8,459,255.9,459.9,256,461.1z"/>
			<path class="st72" d="M239.6,471.5h-16c-0.7,0-0.4-4.9,0.2-9.2c2,2.8,3.6,2.1,4.8,0.7c0.6-0.7,1.7-1.5,2.6-2
				c0.3-0.2,0.7,0.1,0.7,0.5c-0.3,1.8,0,3.2,0.2,3.7c0.4,0.9,12.1,3.3,13.2,3.1C246.4,468,248.6,471.5,239.6,471.5z"/>
			<linearGradient id="SVGID_82_" gradientUnits="userSpaceOnUse" x1="223.7637" y1="461.0756" x2="231.4221" y2="461.0756">
				<stop  offset="0" style="stop-color:#546AEA"/>
				<stop  offset="1" style="stop-color:#658BFD"/>
			</linearGradient>
			<path class="st107" d="M231.4,461.1c-0.8,0.3-2,0.9-2.8,1.9c-1.2,1.4-2.8,2.6-4.8-0.2c0.2-1.2,0.3-4.1,0.6-5l6.9,1.3
				C231.2,459,231.3,459.9,231.4,461.1z"/>
			<path class="st108" d="M284.2,237.1l-2.3,23.4l-6.8,22.4l-0.7-5.9l-20.4-2.9l5.3-39.3c0.1-0.7,0.8-1.3,1.5-1.2l22.1,2
				C283.7,235.6,284.2,236.3,284.2,237.1z"/>
			<polygon class="st66" points="280.1,238.1 278.6,259.8 273.5,279.4 273,274.2 257.9,271.7 261.9,236.8 			"/>
			<path class="st109" d="M279.1,233.5l-0.1,1.3l-0.1,0.8c-0.1,0.5-0.5,0.8-1,0.8l-11.8-1.2c-0.5,0-0.8-0.5-0.8-1l0.1-0.7l0.1-1.5
				c0.1-0.5,0.5-0.8,1-0.8l11.8,1.2C278.8,232.6,279.2,233,279.1,233.5z"/>
			<path class="st110" d="M279,234.9l-0.1,0.8c-0.1,0.5-0.5,0.8-1,0.8l-11.8-1.2c-0.5,0-0.8-0.5-0.8-1l0.1-0.7
				C265.6,233.6,279,234.9,279,234.9z"/>
			<linearGradient id="SVGID_83_" gradientUnits="userSpaceOnUse" x1="252.8979" y1="253.4682" x2="262.5603" y2="253.4682">
				<stop  offset="0" style="stop-color:#546AEA"/>
				<stop  offset="1" style="stop-color:#658BFD"/>
			</linearGradient>
			<path class="st111" d="M259.6,258.6c0,0,2-2.2,2.4-2.9c0.4-0.7,0.7-2.9,0.4-3.5c-0.2-0.7-1.9,2.4-2.7,3c-0.8,0.5-3.7,1-3.7,1
				l1.6-9.4c0,0-1.4,0.8-1.6,1.7c-0.2,0.9-2.2,5.3-2.9,7.2c-0.7,2-0.2,4.4-0.2,4.4L259.6,258.6z"/>
			<linearGradient id="SVGID_84_" gradientUnits="userSpaceOnUse" x1="232.9684" y1="242.3351" x2="254.1045" y2="242.3351">
				<stop  offset="0" style="stop-color:#546AEA"/>
				<stop  offset="1" style="stop-color:#658BFD"/>
			</linearGradient>
			<path class="st112" d="M253.1,229.6c0.1,1.7,0.5,9.9-0.1,14.6c-0.4,3.4-0.9,5.6-1.5,6.8c-0.3,0.6-0.7,1-1.2,1.1
				c-1.3,0.2-3.7,0-3.7,0s-0.1,0.6-0.2,1.4c-0.2,1.7-0.5,4.6,0.2,6c1.1,2.2-13.6,1.3-13.6,1.3s0.7-8.8,1.1-13.2s6.6-21.3,6.6-21.3
				l7.4-1.7l5.1-1.2c0,0,2.2,1.7-0.1,5.7C253,229.3,253.1,229.4,253.1,229.6z"/>
			<path class="st77" d="M251.5,251c-0.3,0.6-0.7,1-1.2,1.1c-1.3,0.2-3.7,0-3.7,0s-0.1,0.6-0.2,1.4c-2.5-2.3-2.8-7.1-2.8-7.1
				s1.5,2.6,4.4,4.2C249.3,251.3,250.6,251.3,251.5,251z"/>
			<path class="st77" d="M246.1,232.4c0,0,7.5-1.1,9-5.5c1.5-4.4-6.4-3.9-6.4-3.9l-3.5,8.8L246.1,232.4z"/>
			<linearGradient id="SVGID_85_" gradientUnits="userSpaceOnUse" x1="270.8305" y1="285.1292" x2="283.4555" y2="253.701">
				<stop  offset="0" style="stop-color:#546AEA"/>
				<stop  offset="1" style="stop-color:#658BFD"/>
			</linearGradient>
			<path class="st113" d="M286.7,252.8c-0.2,2-3.7,7.5-3.5,11.6c0.2,4.2-1.1,17.1-1.1,17.1l-4.7-3.2l-4.1-2.8c0,0,4-10.4,3.8-12.6
				c-0.2-2.2-3-5.7-2.9-7c0-0.1,0-0.1,0-0.2c0.2-2.1,0-4.2,0.9-5.3c0.9-1.1,0.9,3.3,2.4,5.7c0.9,1.5,3.5,0,5-2.2
				c1.5-2.2,0.9-6.1,0.9-6.1l0.2-3.9C283.6,243.8,286.9,250.8,286.7,252.8z"/>
			<path class="st77" d="M278.4,265.5c-1.1,2.6-2.8,10.5-1,12.8l-4.1-2.8c0,0,4-10.4,3.8-12.6c-0.2-2.2-3-5.7-2.9-7
				c0-0.1,0-0.1,0-0.2c0.4,1,1.1,2.3,2.4,3.5C279.3,261.6,279.5,262.9,278.4,265.5z"/>
			<linearGradient id="SVGID_86_" gradientUnits="userSpaceOnUse" x1="231.5811" y1="359.1145" x2="219.0647" y2="456.0004">
				<stop  offset="0" style="stop-color:#24247F"/>
				<stop  offset="1" style="stop-color:#2D2D96"/>
			</linearGradient>
			<path class="st114" d="M242.7,357.3l-11.5,101.7H224c0,0-7-33.1-3.9-50c3.1-16.9,2.7-34.6,1.6-46.2c-1-10.2-2.6-25.9,5.3-39.5
				C234.9,309.8,242.7,357.3,242.7,357.3z"/>
			<linearGradient id="SVGID_87_" gradientUnits="userSpaceOnUse" x1="257.877" y1="300.2513" x2="243.3694" y2="412.55">
				<stop  offset="0" style="stop-color:#24247F"/>
				<stop  offset="1" style="stop-color:#2D2D96"/>
			</linearGradient>
			<path class="st115" d="M264.1,327.8L255.8,459h-7.2c0,0-7.7-31.6-5.7-47.4c2-15.8,0.7-25-2.2-44.3c-2.9-19.3-6.8-25.2-4.2-43.9
				C237.7,315.1,264.1,327.8,264.1,327.8z"/>
			<linearGradient id="SVGID_88_" gradientUnits="userSpaceOnUse" x1="241.7137" y1="351.5647" x2="251.1932" y2="253.8068">
				<stop  offset="0" style="stop-color:#F4BA38"/>
				<stop  offset="1" style="stop-color:#FFD349"/>
			</linearGradient>
			<path class="st116" d="M282.5,278.7c-0.9,5.9-2.9,17.9-5.9,22.3c-0.6,0.9-1.2,1.4-1.8,1.6c-3.9,1.1-9.2-9-9.2-9
				c0.2,13.8-1.5,33.8-1.5,33.8c-3.3,1.9-6.9,3.3-10.5,4.2c-15.3,4.1-30.8,0.8-30.8,0.8l2.1-18.5c0,0,0,0,0-0.1l0.4-3.2
				c0,0-0.9,1.7-3.6,2.3c-0.9,0.2-2,0.3-3.4,0.1c-5.5-0.7-3.2-40.3-2.3-42.9c0.9-2.6,4.8-6.4,16.5-10.5c11.6-4.2,29.4-2,31.7-1.2
				c2.9,1,5.6,9.3,7.2,14.9c0.4,1.5,0.7,2.8,1,3.6l0,0c0.2,0.8,0.3,1.3,0.3,1.3l0-0.1l0.8-3.1c0.1,0,0.1,0,0.2,0
				C280.4,276.1,282.5,278.7,282.5,278.7z"/>
			<linearGradient id="SVGID_89_" gradientUnits="userSpaceOnUse" x1="271.2997" y1="275.1712" x2="272.2497" y2="275.1712">
				<stop  offset="0" style="stop-color:#F4BA38"/>
				<stop  offset="1" style="stop-color:#FFD349"/>
			</linearGradient>
			<path class="st117" d="M271.3,273.3c0.4,1.5,0.7,2.8,1,3.6L271.3,273.3z"/>
			<linearGradient id="SVGID_90_" gradientUnits="userSpaceOnUse" x1="268.0594" y1="251.6392" x2="283.6414" y2="330.087">
				<stop  offset="0" style="stop-color:#F4BA38"/>
				<stop  offset="1" style="stop-color:#FFD349"/>
			</linearGradient>
			<path class="st118" d="M275.1,287.9l-2.5-9.6l0.8-3.1c0.1,0,0.1,0,0.2,0L275.1,287.9z"/>
			<linearGradient id="SVGID_91_" gradientUnits="userSpaceOnUse" x1="274.4431" y1="338.5133" x2="232.5324" y2="238.0352">
				<stop  offset="0" style="stop-color:#FF911E"/>
				<stop  offset="1" style="stop-color:#FE931E;stop-opacity:0"/>
			</linearGradient>
			<path class="st119" d="M276.7,301c-0.6,0.9-1.2,1.4-1.8,1.6c-3.9,1.1-9.2-9-9.2-9c0.2,13.8-1.5,33.8-1.5,33.8
				c-3.3,1.9-6.9,3.3-10.5,4.2c-0.7-9.3,1.7-24,2.6-32.7c1.3-12.8-3.8-24-3.9-24.3c0.2,0.2,4.5,6.2,8.3,8.3
				c3.9,2.2,4.8,3.3,9.7,12.5C272.5,299.6,274.8,300.9,276.7,301z"/>
			<linearGradient id="SVGID_92_" gradientUnits="userSpaceOnUse" x1="224.9327" y1="313.8831" x2="224.9392" y2="313.8831">
				<stop  offset="0" style="stop-color:#F4BA38"/>
				<stop  offset="1" style="stop-color:#FFD349"/>
			</linearGradient>
			<path class="st120" d="M224.9,313.9C224.9,313.9,224.9,313.9,224.9,313.9L224.9,313.9z"/>
			<linearGradient id="SVGID_93_" gradientUnits="userSpaceOnUse" x1="222.3411" y1="322.6657" x2="228.2515" y2="230.7852">
				<stop  offset="0" style="stop-color:#FF911E"/>
				<stop  offset="1" style="stop-color:#FE931E;stop-opacity:0"/>
			</linearGradient>
			<path class="st121" d="M224.9,313.9l0.4-3.2c0,0-0.9,1.7-3.6,2.3c0.9-3.6,1.9-8.5,1.4-11.5c-0.9-5-1.3-8.6,0-14.9
				c1.3-6.2,0.1-11.2,0-11.4C228.4,286.3,225.1,312.5,224.9,313.9z"/>
			<path class="st21" d="M246.4,231.5c0,0,2,6.4-1.1,11.2c0,0-0.2-9.4-3.3-8.6c-3.1,0.9-1.9,7.2-0.7,7.7c1.1,0.4,2.2-0.7,2.2-0.7
				s-0.4,13.8-8.3,13.4c-7.9-0.4-9.6-17.4-9.9-22.2c-0.2-4.8,3-11.1,6.3-9.3c0,0-0.8-2,2.1-5.2c2.6-2.9,9-8.8,18.4-1.1
				c8.1,6.6,1,15.8,1,15.8s0.2-2.9-0.7-6.8C252.5,225.8,250.3,230.2,246.4,231.5z"/>
		</g>
		<g>
			<linearGradient id="SVGID_94_" gradientUnits="userSpaceOnUse" x1="339.6742" y1="466.9395" x2="345.0808" y2="447.6982">
				<stop  offset="0" style="stop-color:#F4A238"/>
				<stop  offset="1" style="stop-color:#FFC949"/>
			</linearGradient>
			<path class="st122" d="M336.8,462.6c0,0,0.5-19.4,7.2-20.8c6.7-1.4,7.6,12.1,0,25.4L336.8,462.6z"/>
			<path class="st123" d="M344.9,446.9c0,0-1.3,4.7-4.6,17.9"/>
			<linearGradient id="SVGID_95_" gradientUnits="userSpaceOnUse" x1="338.7328" y1="467.5862" x2="332.054" y2="453.7516">
				<stop  offset="0" style="stop-color:#F4BA38"/>
				<stop  offset="1" style="stop-color:#FFD349"/>
			</linearGradient>
			<path class="st124" d="M334.5,467.2c0,0-10.2-9.9-6.4-14.6c3.8-4.8,13.4,3.5,15.9,14.6H334.5z"/>
			<path class="st123" d="M331,455.3c0,0,4.9,4.6,7.5,10.5"/>
			<linearGradient id="SVGID_96_" gradientUnits="userSpaceOnUse" x1="347.058" y1="468.4933" x2="349.4433" y2="459.5883">
				<stop  offset="0" style="stop-color:#F4BA38"/>
				<stop  offset="1" style="stop-color:#FFD349"/>
			</linearGradient>
			<path class="st125" d="M343.1,467.2c0,0,2.6-11.2,7.8-10.3c5.2,1,0,10.2,0,10.2L343.1,467.2z"/>
			<line class="st123" x1="350" y1="459.2" x2="348.3" y2="465.7"/>
		</g>
		<g>
			<linearGradient id="SVGID_97_" gradientUnits="userSpaceOnUse" x1="167.2825" y1="393.4478" x2="171.5876" y2="378.1267">
				<stop  offset="0" style="stop-color:#F4A238"/>
				<stop  offset="1" style="stop-color:#FFC949"/>
			</linearGradient>
			<path class="st126" d="M165,390c0,0,0.4-15.4,5.8-16.6c5.3-1.1,6.1,9.6,0,20.3L165,390z"/>
			<path class="st123" d="M171.4,377.5c0,0-1.1,3.7-3.6,14.3"/>
			<linearGradient id="SVGID_98_" gradientUnits="userSpaceOnUse" x1="166.5329" y1="393.9627" x2="161.2148" y2="382.9467">
				<stop  offset="0" style="stop-color:#F4BA38"/>
				<stop  offset="1" style="stop-color:#FFD349"/>
			</linearGradient>
			<path class="st127" d="M163.2,393.7c0,0-8.1-7.9-5.1-11.6c3-3.8,10.6,2.8,12.7,11.6H163.2z"/>
			<path class="st123" d="M160.4,384.2c0,0,3.9,3.7,6,8.4"/>
			<linearGradient id="SVGID_99_" gradientUnits="userSpaceOnUse" x1="173.1619" y1="394.6851" x2="175.0612" y2="387.5943">
				<stop  offset="0" style="stop-color:#F4BA38"/>
				<stop  offset="1" style="stop-color:#FFD349"/>
			</linearGradient>
			<path class="st128" d="M170,393.7c0,0,2.1-8.9,6.2-8.2c4.2,0.8,0,8.1,0,8.1L170,393.7z"/>
			<line class="st123" x1="175.5" y1="387.3" x2="174.1" y2="392.5"/>
		</g>
		<g>
			
				<linearGradient id="SVGID_100_" gradientUnits="userSpaceOnUse" x1="367.6982" y1="367.4412" x2="371.9819" y2="352.1961" gradientTransform="matrix(-1 0 0 1 731.505 0)">
				<stop  offset="0" style="stop-color:#F4A238"/>
				<stop  offset="1" style="stop-color:#FFC949"/>
			</linearGradient>
			<path class="st129" d="M366.1,364c0,0-0.4-15.4-5.7-16.5c-5.3-1.1-6,9.6,0,20.2L366.1,364z"/>
			<path class="st123" d="M359.7,351.6c0,0,1.1,3.7,3.6,14.2"/>
			
				<linearGradient id="SVGID_101_" gradientUnits="userSpaceOnUse" x1="366.9523" y1="367.9536" x2="361.6606" y2="356.9922" gradientTransform="matrix(-1 0 0 1 731.505 0)">
				<stop  offset="0" style="stop-color:#F4BA38"/>
				<stop  offset="1" style="stop-color:#FFD349"/>
			</linearGradient>
			<path class="st130" d="M367.9,367.7c0,0,8.1-7.8,5-11.6c-3-3.8-10.6,2.8-12.6,11.6H367.9z"/>
			<path class="st123" d="M370.7,358.2c0,0-3.9,3.7-5.9,8.3"/>
			
				<linearGradient id="SVGID_102_" gradientUnits="userSpaceOnUse" x1="373.5484" y1="368.6723" x2="375.4383" y2="361.6167" gradientTransform="matrix(-1 0 0 1 731.505 0)">
				<stop  offset="0" style="stop-color:#F4BA38"/>
				<stop  offset="1" style="stop-color:#FFD349"/>
			</linearGradient>
			<path class="st131" d="M361.1,367.7c0,0-2.1-8.9-6.2-8.1c-4.2,0.8,0,8.1,0,8.1L361.1,367.7z"/>
			<line class="st123" x1="355.6" y1="361.3" x2="357" y2="366.5"/>
		</g>
	</g>
</g>
<g id="DESIGNED_BY_FREEPIK">
</g>
</svg>
