<svg xmlns="http://www.w3.org/2000/svg" xmlns:xlink="http://www.w3.org/1999/xlink" version="1.1" width="430.114" height="430.114" style="" xml:space="preserve"><rect id="backgroundrect" width="100%" height="100%" x="0" y="0" fill="none" stroke="none"/> <g class="currentLayer" style=""><title>Layer 1</title><g id="svg_1" class="selected" transform="rotate(50.73110580444336 213.6723327636719,202.28024291992185) " fill="#000000" fill-opacity="1" opacity="0.59"><g id="svg_2" fill="#000000" fill-opacity="1" opacity="0.59">
	<path id="Facebook_Places" d="M331.80348605886104,115.0260976087703 c-1.2813095670773662,-4.635544097989229 -3.8832634821939767,-9.574846401074998 -5.808157018626334,-13.899361485866967 C302.9618856012384,47.692759523181564 252.63428872586456,28.543066721031558 211.99727544107785,28.543066721031558 C157.59727337079966,28.543066721031558 97.68203286352622,63.75478248522789 89.68284485429992,136.33441254926592 v14.828409187625002 c0,0.6188265561275273 0.22094430157310585,6.177763282907567 0.5347856390349042,8.95844344764771 c4.484165029654163,34.58965773780181 32.75917725937905,71.35086349501718 53.87609626427525,105.94052123281901 c22.71876519130122,37.05930888934469 46.292852640964995,73.51514070633004 69.64850651975537,109.95562303954718 c14.401551293446966,-23.780389694738744 28.751214152433587,-47.873424137808236 42.82469663445382,-71.03821874668644 c3.835559598899782,-6.7982055741685885 8.28792203969115,-13.592371810503442 12.127666189757091,-20.081164106608266 c2.559271493221805,-4.320475746958243 7.448501075759998,-8.640951493916486 9.682214488254766,-12.660900506045168 c22.717928281067987,-40.150210199715346 59.28504710165018,-80.6106415450612 59.28504710165018,-120.45628567211324 v-16.369012637409853 C337.6626946017145,131.09215990865033 332.1156535758564,115.95756891322856 331.80348605886104,115.0260976087703 zM212.99319861862327,189.4646309438912 c-15.99084382635351,0 -33.49398444415627,-7.718366732692414 -42.13340878180463,-29.03395248128875 c-1.2871679387099848,-3.3930437803336977 -1.1833910697892844,-10.192865089635776 -1.1833910697892844,-10.815730983597033 v-9.574846401074998 c0,-27.173433475072446 23.902156261090507,-39.53057577602107 44.69602791595936,-39.53057577602107 c25.599410214083907,0 45.39819560164056,19.77013509341101 45.39819560164056,44.48118822504128 C259.77062228462927,169.70095879101407 238.59260883270716,189.4646309438912 212.99319861862327,189.4646309438912 z" data-original="#000000" class="active-path" data-old_color="#727272" fill="#000000" fill-opacity="1" opacity="0.59"/>
</g></g></g></svg>