<svg height="496pt" viewBox="-47 0 496 496.30294" width="496pt" xmlns="http://www.w3.org/2000/svg"><path d="m401.21875 87.933594c-2.171875-49.160156-42.648438-87.9062502-91.859375-87.933594s-89.730469 38.679688-91.957031 87.839844c-.085938 1.519531-.09375 2.949218-.09375 4.464844v4c0 8.835937 7.164062 16 16 16h40c4.417968 0 8-3.582032 8-8v-6.105469c.210937-.898438.269531-1.828125.167968-2.746094-.316406-2.933594-.1875-5.902344.382813-8.796875 2.847656-14.128906 15.949219-23.785156 30.285156-22.324219 14.335938 1.457031 25.222657 13.5625 25.164063 27.972657 0 .503906-.054688 1-.105469 1.496093-.078125.964844-.160156 1.925781-.160156 2.886719 0 38.152344-52.800781 50.128906-84.246094 53.871094-4.691406.570312-9.25 1.960937-13.457031 4.113281l-72.433594-103.359375c-.796875-1.175781-1.597656-2.28125-2.34375-3.105469-30.085938-38.390625-84.902344-46.628906-124.945312-18.777343-40.039063 27.851562-51.386719 82.109374-25.859376 123.671874.574219 1.054688 1.207032 2.074219 1.894532 3.058594l3.144531 4.488282c5.089844 7.164062 15.003906 8.878906 22.207031 3.847656l32.800782-22.890625c3.621093-2.519531 4.515624-7.5 2-11.125l-3.953126-5.679688c-.261718-.636719-.609374-1.234375-1.03125-1.777343-1.953124-2.195313-3.554687-4.675782-4.753906-7.359376-5.824218-13.253906-.585937-28.761718 12.082032-35.769531 12.667968-7.003906 28.589843-3.199219 36.71875 8.777344.253906.355469.484374.730469.6875 1.117187.46875.828126.980468 1.628907 1.53125 2.402344 21.820312 31.238282-14.539063 71.3125-38.179688 92.464844-15.160156 13.503906-17.84375 36.207031-6.253906 52.878906l144.65625 206.574219v12.195313c.027344 22.078124 17.917968 39.972656 40 40h104c22.078125-.027344 39.972656-17.921876 40-40v-364c0-1.515626 0-2.945313-.089844-4.371094zm-315.429688 140.417968c-6.953124-10.027343-5.316406-23.671874 3.816407-31.769531 47.589843-42.574219 62.007812-82.910156 40.480469-113.734375-.257813-.355468-.488282-.726562-.691407-1.113281-.46875-.824219-.980469-1.625-1.535156-2.398437-12.921875-18.617188-37.871094-24.375-57.644531-13.300782-19.773438 11.074219-27.902344 35.355469-18.777344 56.101563 1.632812 3.582031 3.734375 6.933593 6.246094 9.964843.117187.328126.253906.648438.417968.953126l-26.265624 18.3125-2.976563-4.265626c-.328125-.488281-.671875-.964843-1.277344-2.046874-21.578125-34.355469-12.367187-79.601563 20.925781-102.789063 33.289063-23.183594 78.921876-16.132813 103.664063 16.019531.632813.738282 1.152344 1.488282 1.945313 2.609375l72.671874 103.753907c-6.097656 7.15625-9.457031 16.242187-9.480468 25.648437v225.910156zm299.519532 227.953126c0 13.253906-10.746094 24-24 24h-104c-13.253906 0-24-10.746094-24-24v-266.007813c.058594-12.21875 9.238281-22.460937 21.375-23.851563 63.433594-7.542968 98.402344-32.320312 98.402344-69.757812 0-.480469.054687-.960938.09375-1.441406.089843-.976563.167968-1.949219.167968-2.941406 0-11.6875-4.648437-22.898438-12.921875-31.152344-8.277343-8.253906-19.496093-12.878906-31.183593-12.847656-3.128907 0-6.253907.324218-9.316407.964843-17.074219 3.699219-30.332031 17.164063-33.769531 34.289063-.746094 3.804687-1 7.691406-.761719 11.558594-.058593.394531-.085937.789062-.085937 1.1875h-32v-4c0-1.203126 0-2.335938.070312-3.632813 1.75-40.6875 35.253906-72.765625 75.980469-72.738281 40.722656.023437 74.1875 32.144531 75.882813 72.832031.074218 1.203125.066406 2.335937.066406 3.539063zm0 0"/><path d="m369.308594 440.304688h-8c-4.417969 0-8 3.578124-8 8 0 4.417968 3.582031 8 8 8h8c4.417968 0 8-3.582032 8-8 0-4.421876-3.582032-8-8-8zm0 0"/><path d="m337.308594 440.304688h-56c-4.417969 0-8 3.578124-8 8 0 4.417968 3.582031 8 8 8h56c4.417968 0 8-3.582032 8-8 0-4.421876-3.582032-8-8-8zm0 0"/></svg>